<?xml version="1.0" encoding="utf-8"?>
<!-- Generator: Adobe Illustrator 27.5.0, SVG Export Plug-In . SVG Version: 6.00 Build 0)  -->
<svg version="1.1" xmlns="http://www.w3.org/2000/svg" xmlns:xlink="http://www.w3.org/1999/xlink" x="0px" y="0px"
	 viewBox="0 0 500 500" style="enable-background:new 0 0 500 500;" xml:space="preserve">
<g id="BACKGROUND">
	<rect style="fill:#FFFFFF;" width="500" height="500"/>
</g>
<g id="OBJECTS">
	<g>
		<g style="opacity:0.2;">
			<ellipse style="fill:#1FD297;" cx="94.233" cy="112.27" rx="53.431" ry="48.94"/>
			<path style="fill:#1FD297;" d="M90.921,433.848c4.032,1.874,8.378,3.553,12.952,5.074h218.361
				c45.266-15.536,81.261-43.791,104.504-85.303c31.445-56.161,41.723-150.95,20.455-211.7
				c-7.209-20.593-10.425-36.086-36.538-58.86c-16.443-14.341-44.331-21.982-66.142-22.544
				c-45.55-1.175-92.772,18.736-101.546,58.579c-3.989,18.112,1.748,30.856,1.864,49.401c0.116,18.546,6.271,39.876-5.888,53.881
				c-17.113,19.712-46.925,21.621-72.829,18.402c-25.904-3.219-52.634-9.995-77.594-2.353c-37.726,11.551-66.798,60.773-59.9,99.62
				C35.519,376.893,55.144,417.214,90.921,433.848z"/>
		</g>
		<g>
			<g>
				<g>
					<path style="fill:#018C6A;" d="M77.287,369.421c0.774-2.172,1.217-4.5,1.217-6.938v-1.858c0-11.429-9.265-20.694-20.694-20.694
						h-0.372c-11.429,0-20.694,9.265-20.694,20.694v1.858c0,2.438,0.443,4.766,1.217,6.938
						c-6.845,5.383-11.246,13.734-11.246,23.118v0c0,16.239,13.164,29.403,29.403,29.403h3.012
						c16.239,0,29.403-13.164,29.403-29.403v0C88.533,383.155,84.132,374.804,77.287,369.421z"/>
					<g>
						<g style="opacity:0.4;">
							<path style="fill:#FFFFFF;" d="M41.995,357.867c-0.189,0-0.382-0.03-0.571-0.092c-0.955-0.315-1.473-1.346-1.158-2.301
								c1.569-4.748,5.077-8.674,9.625-10.773c0.914-0.421,1.996-0.023,2.416,0.891c0.421,0.913,0.023,1.995-0.89,2.416
								c-3.635,1.678-6.439,4.816-7.692,8.609C43.471,357.382,42.76,357.867,41.995,357.867z"/>
						</g>
						<g style="opacity:0.4;">
							<path style="fill:#FFFFFF;" d="M34.748,401.13c-0.736,0-1.43-0.451-1.705-1.181c-1.055-2.807-1.59-5.764-1.59-8.788
								c0-3.871,0.863-7.583,2.565-11.032c0.445-0.903,1.538-1.272,2.439-0.828c0.902,0.445,1.273,1.537,0.828,2.439
								c-1.453,2.944-2.189,6.113-2.189,9.421c0,2.585,0.456,5.11,1.358,7.506c0.354,0.941-0.123,1.992-1.064,2.346
								C35.178,401.092,34.962,401.13,34.748,401.13z"/>
						</g>
						<g style="opacity:0.4;">
							<path style="fill:#FFFFFF;" d="M38.26,378.632c-0.396,0-0.794-0.128-1.129-0.393c-0.789-0.624-0.923-1.769-0.298-2.558
								c0.319-0.404,0.65-0.796,0.993-1.179c0.67-0.751,1.821-0.813,2.572-0.142c0.749,0.671,0.813,1.822,0.142,2.571
								c-0.293,0.328-0.577,0.665-0.851,1.01C39.33,378.395,38.798,378.632,38.26,378.632z"/>
						</g>
					</g>
				</g>
				
					<line style="fill:none;stroke:#343946;stroke-width:3;stroke-linecap:round;stroke-linejoin:round;stroke-miterlimit:10;" x1="57.977" y1="356.28" x2="57.977" y2="438.923"/>
				
					<line style="fill:none;stroke:#343946;stroke-width:3;stroke-linecap:round;stroke-linejoin:round;stroke-miterlimit:10;" x1="46.324" y1="382.98" x2="57.977" y2="399"/>
				
					<line style="fill:none;stroke:#343946;stroke-width:2;stroke-linecap:round;stroke-linejoin:round;stroke-miterlimit:10;" x1="57.977" y1="374.765" x2="67.447" y2="365.207"/>
			</g>
			<g>
				<g>
					<path style="fill:#018C6A;" d="M414.036,360.878c-0.907-2.544-1.426-5.273-1.426-8.129v-2.177
						c0-13.39,10.855-24.245,24.245-24.245h0.435c13.39,0,24.245,10.855,24.245,24.245v2.177c0,2.856-0.519,5.584-1.426,8.129
						c8.019,6.307,13.176,16.09,13.176,27.084v0c0,19.025-15.423,34.448-34.448,34.448h-3.529
						c-19.025,0-34.448-15.423-34.448-34.448v0C400.86,376.968,406.017,367.185,414.036,360.878z"/>
					<g>
						<g style="opacity:0.4;">
							<path style="fill:#FFFFFF;" d="M455.383,347.341c0.222,0,0.447-0.035,0.67-0.108c1.119-0.37,1.726-1.577,1.356-2.696
								c-1.839-5.563-5.948-10.163-11.276-12.622c-1.071-0.494-2.338-0.027-2.831,1.043c-0.494,1.07-0.027,2.337,1.043,2.831
								c4.258,1.965,7.544,5.642,9.012,10.086C453.654,346.773,454.487,347.341,455.383,347.341z"/>
						</g>
						<g style="opacity:0.4;">
							<path style="fill:#FFFFFF;" d="M463.873,398.028c0.863,0,1.675-0.528,1.998-1.384c1.236-3.289,1.863-6.753,1.863-10.295
								c0-4.535-1.011-8.884-3.005-12.925c-0.522-1.058-1.802-1.491-2.857-0.97c-1.057,0.522-1.491,1.801-0.97,2.857
								c1.702,3.449,2.565,7.162,2.565,11.037c0,3.028-0.535,5.987-1.591,8.794c-0.415,1.103,0.144,2.334,1.247,2.748
								C463.37,397.984,463.623,398.028,463.873,398.028z"/>
						</g>
						<g style="opacity:0.4;">
							<path style="fill:#FFFFFF;" d="M459.759,371.67c0.464,0,0.931-0.15,1.323-0.46c0.924-0.731,1.081-2.073,0.349-2.997
								c-0.374-0.473-0.762-0.933-1.163-1.381c-0.785-0.879-2.133-0.953-3.013-0.167c-0.878,0.785-0.953,2.134-0.167,3.012
								c0.343,0.384,0.676,0.779,0.997,1.184C458.505,371.392,459.129,371.67,459.759,371.67z"/>
						</g>
					</g>
				</g>
				
					<line style="fill:none;stroke:#343946;stroke-width:3;stroke-linecap:round;stroke-linejoin:round;stroke-miterlimit:10;" x1="436.659" y1="345.482" x2="436.659" y2="437.183"/>
				
					<line style="fill:none;stroke:#343946;stroke-width:3;stroke-linecap:round;stroke-linejoin:round;stroke-miterlimit:10;" x1="450.311" y1="376.764" x2="436.659" y2="395.533"/>
			</g>
			<g>
				<path style="fill:#018C6A;" d="M104.365,425.032H90.514c-9.188,0-16.636-7.448-16.636-16.636v-30.27
					c0-9.188,7.448-16.636,16.636-16.636h13.851c9.188,0,16.636,7.448,16.636,16.636v30.27
					C121.001,417.584,113.553,425.032,104.365,425.032z"/>
				<g style="opacity:0.4;">
					<g>
						<path style="fill:#FFFFFF;" d="M78.651,395.841c-0.971,0-1.758-0.787-1.758-1.759v-12.274c0-4.148,1.778-8.109,4.878-10.868
							c0.724-0.646,1.836-0.581,2.483,0.144c0.646,0.726,0.581,1.837-0.144,2.483c-2.351,2.092-3.699,5.096-3.699,8.241v12.274
							C80.41,395.054,79.623,395.841,78.651,395.841z"/>
					</g>
					<g>
						<path style="fill:#FFFFFF;" d="M78.651,403.14c-0.971,0-1.758-0.787-1.758-1.758v-2.345c0-0.971,0.787-1.759,1.758-1.759
							c0.971,0,1.758,0.787,1.758,1.759v2.345C80.41,402.353,79.623,403.14,78.651,403.14z"/>
					</g>
				</g>
				<g>
					<path style="fill:#343946;" d="M97.458,439.535L97.458,439.535c-0.686,0-1.241-0.556-1.241-1.241v-55.462
						c0-0.686,0.556-1.241,1.241-1.241l0,0c0.686,0,1.241,0.556,1.241,1.241v55.462C98.7,438.979,98.144,439.535,97.458,439.535z"/>
					
						<line style="fill:none;stroke:#343946;stroke-width:2;stroke-linecap:round;stroke-linejoin:round;stroke-miterlimit:10;" x1="97.472" y1="406.071" x2="89.667" y2="396.655"/>
				</g>
			</g>
			<g>
				<path style="fill:#018C6A;" d="M291.279,438.923h-13.851c-9.188,0-16.636-7.448-16.636-16.636V395.88
					c0-9.188,7.448-16.636,16.636-16.636h13.851c9.188,0,16.636,7.448,16.636,16.636v26.407
					C307.914,431.475,300.466,438.923,291.279,438.923z"/>
				<g style="opacity:0.4;">
					<g>
						<path style="fill:#FFFFFF;" d="M265.565,413.596c-0.971,0-1.759-0.787-1.759-1.759v-12.274c0-4.148,1.778-8.109,4.878-10.868
							c0.724-0.646,1.836-0.581,2.483,0.144c0.646,0.726,0.581,1.837-0.144,2.483c-2.351,2.092-3.699,5.096-3.699,8.241v12.274
							C267.324,412.809,266.536,413.596,265.565,413.596z"/>
					</g>
					<g>
						<path style="fill:#FFFFFF;" d="M265.565,420.894c-0.971,0-1.759-0.787-1.759-1.759v-2.345c0-0.971,0.787-1.759,1.759-1.759
							c0.971,0,1.758,0.787,1.758,1.759v2.345C267.324,420.107,266.536,420.894,265.565,420.894z"/>
					</g>
				</g>
				<g>
					<path style="fill:#343946;" d="M284.88,438.923L284.88,438.923c-0.966,0-1.75-0.783-1.75-1.75v-36.079
						c0-0.966,0.783-1.75,1.75-1.75l0,0c0.966,0,1.75,0.783,1.75,1.75v36.079C286.63,438.139,285.847,438.923,284.88,438.923z"/>
					
						<line style="fill:none;stroke:#343946;stroke-width:3;stroke-linecap:round;stroke-linejoin:round;stroke-miterlimit:10;" x1="284.386" y1="423.825" x2="276.581" y2="414.409"/>
				</g>
			</g>
		</g>
	</g>
	<g>
		<g>
			<g>
				<g>
					<g>
						<g>
							<path style="fill:#EAEAEA;" d="M263.555,375.583l-9.668-93.999c0,0-1.792-28.526-2.679-31.97
								c-0.887-3.444-61.608-62.808-61.608-62.808l0.939-9.774c0,0,41.481-2.54,69.929,17.599
								c28.448,20.139,98.494,102.144,75.153,151.711C324.524,369.909,293.281,375.84,263.555,375.583z"/>
							<g>
								<path style="fill:#018C6A;" d="M270.673,262.218L270.673,262.218c-2.3-2.3-2.3-6.029,0-8.329l9.924-9.924
									c2.3-2.3,6.029-2.3,8.329,0l0,0c2.3,2.3,2.3,6.029,0,8.329l-9.924,9.924C276.702,264.518,272.973,264.518,270.673,262.218z"
									/>
								<path style="fill:#018C6A;" d="M287.491,269.733L287.491,269.733c2.987-1.288,6.452,0.089,7.741,3.075l5.559,12.887
									c1.288,2.987-0.089,6.452-3.075,7.74l0,0c-2.987,1.288-6.452-0.089-7.741-3.075l-5.559-12.887
									C283.128,274.487,284.504,271.022,287.491,269.733z"/>
								<path style="fill:#018C6A;" d="M312.537,326.011L312.537,326.011c-3.151-0.808-5.049-4.018-4.241-7.169l3.488-13.594
									c0.808-3.151,4.018-5.049,7.168-4.241l0,0c3.151,0.808,5.049,4.018,4.241,7.168l-3.488,13.595
									C318.897,324.921,315.688,326.819,312.537,326.011z"/>
								<path style="fill:#018C6A;" d="M312.787,252.218l-4.102,5.673c-1.906,2.636-1.314,6.318,1.321,8.224
									c2.636,1.906,6.318,1.314,8.224-1.321l1.348-1.864C317.412,259.302,315.138,255.726,312.787,252.218z"/>
								<path style="fill:#018C6A;" d="M327.609,277.683c-2.799-0.68-5.746,0.775-6.849,3.527c-1.21,3.019,0.256,6.448,3.275,7.658
									l10.104,4.051C332.294,287.841,330.089,282.744,327.609,277.683z"/>
							</g>
							<path style="opacity:0.2;fill:#343946;" d="M243.053,214.3l5.279,111.726l64.691,4.978
								C313.022,331.004,265.025,178.572,243.053,214.3z"/>
						</g>
						<g>
							<path style="fill:#EAEAEA;" d="M128.528,375.583l9.668-93.999c0,0,1.792-28.526,2.679-31.97
								c0.887-3.444,61.608-62.808,61.608-62.808l-0.939-9.774c0,0-41.481-2.54-69.929,17.599
								c-28.448,20.139-98.494,102.144-75.153,151.711C67.558,369.909,98.801,375.84,128.528,375.583z"/>
							<g>
								<path style="fill:#018C6A;" d="M91.642,270.279L91.642,270.279c2.52,2.056,2.897,5.766,0.84,8.286l-8.872,10.875
									c-2.056,2.52-5.766,2.897-8.286,0.84l0,0c-2.52-2.056-2.896-5.766-0.84-8.286l8.872-10.875
									C85.411,268.599,89.121,268.223,91.642,270.279z"/>
								<path style="fill:#018C6A;" d="M112.244,260.585L112.244,260.585c3.15-0.81,6.361,1.087,7.171,4.237l3.495,13.593
									c0.81,3.15-1.087,6.361-4.237,7.171l0,0c-3.15,0.81-6.361-1.087-7.17-4.237l-3.495-13.593
									C107.197,264.605,109.094,261.395,112.244,260.585z"/>
								<path style="fill:#018C6A;" d="M113.881,237.493L113.881,237.493c-2.713-1.794-3.458-5.448-1.664-8.161l7.742-11.706
									c1.794-2.713,5.448-3.458,8.161-1.664l0,0c2.713,1.794,3.458,5.448,1.664,8.161l-7.742,11.706
									C120.248,238.542,116.594,239.287,113.881,237.493z"/>
								<path style="fill:#018C6A;" d="M131.615,194.633c-0.685,0.485-1.401,1.016-2.132,1.572c0.809,1.765,2.469,3.095,4.534,3.385
									c3.221,0.451,6.199-1.794,6.65-5.015l0.818-5.837C138.084,190.447,134.769,192.4,131.615,194.633z"/>
								<path style="fill:#018C6A;" d="M81.558,251.251l14.026,0.512c3.25,0.119,5.982-2.42,6.101-5.671
									c0.119-3.25-2.42-5.982-5.671-6.101l-7.808-0.285c-2.76,3.659-5.474,7.434-8.098,11.302
									C80.57,251.145,81.054,251.233,81.558,251.251z"/>
								<path style="fill:#018C6A;" d="M139.274,265.927c0.483-6.462,1.036-13.015,1.452-15.548l-2.426-2.545
									c-2.244-2.354-5.972-2.444-8.326-0.199h0c-2.354,2.244-2.443,5.972-0.199,8.327L139.274,265.927z"/>
							</g>
							<polygon style="opacity:0.2;fill:#343946;" points="96.585,284.889 140.08,232.969 136.431,262.93 133.263,290.746 							
								"/>
						</g>
					</g>
					<g>
						<path style="fill:#EAEAEA;" d="M291.81,438.923l-25.975-212.171c0,0-20.423-37.258-46.106-46.086h-32.749
							c-25.683,8.828-46.106,46.086-46.106,46.086L114.9,438.923H291.81z"/>
						<g>
							<path style="fill:#018C6A;" d="M143.997,210.376L143.997,210.376c2.665-1.865,6.337-1.218,8.202,1.447l8.049,11.497
								c1.865,2.665,1.218,6.337-1.447,8.202l0,0c-2.665,1.865-6.337,1.218-8.202-1.447l-8.049-11.497
								C140.685,215.913,141.333,212.241,143.997,210.376z"/>
							<path style="fill:#018C6A;" d="M188.055,207.05L188.055,207.05c-1.865-2.665-1.218-6.337,1.447-8.202L201,190.798
								c2.665-1.865,6.337-1.218,8.202,1.447l0,0c1.866,2.665,1.218,6.337-1.447,8.202l-11.497,8.049
								C193.593,210.362,189.921,209.714,188.055,207.05z"/>
							<path style="fill:#018C6A;" d="M200.159,244.776L200.159,244.776c-1.288-2.987,0.089-6.452,3.075-7.741l12.887-5.559
								c2.987-1.288,6.452,0.089,7.74,3.075l0,0c1.288,2.987-0.089,6.452-3.075,7.74l-12.887,5.559
								C204.913,249.139,201.447,247.762,200.159,244.776z"/>
							<path style="fill:#018C6A;" d="M243.603,262.838L243.603,262.838c2.512-2.067,6.223-1.706,8.29,0.806l8.918,10.837
								c2.067,2.512,1.706,6.223-0.806,8.29l0,0c-2.512,2.067-6.223,1.706-8.29-0.806l-8.918-10.837
								C240.73,268.617,241.091,264.905,243.603,262.838z"/>
							<path style="fill:#018C6A;" d="M203.668,270.72L203.668,270.72c2.738-1.756,6.381-0.959,8.137,1.779l7.576,11.815
								c1.756,2.738,0.959,6.381-1.779,8.137l0,0c-2.738,1.756-6.381,0.959-8.137-1.779l-7.576-11.815
								C200.134,276.118,200.93,272.475,203.668,270.72z"/>
							<path style="fill:#018C6A;" d="M196.566,380.635L196.566,380.635c2.52,2.056,2.897,5.766,0.84,8.286l-8.872,10.875
								c-2.056,2.52-5.766,2.897-8.286,0.84l0,0c-2.52-2.056-2.896-5.766-0.84-8.286l8.872-10.875
								C190.336,378.955,194.046,378.579,196.566,380.635z"/>
							<path style="fill:#018C6A;" d="M160.948,409.233L160.948,409.233c3.151,0.808,5.049,4.018,4.241,7.168l-3.488,13.595
								c-0.808,3.151-4.018,5.049-7.168,4.241l0,0c-3.151-0.808-5.049-4.018-4.241-7.168l3.488-13.595
								C154.588,410.323,157.797,408.425,160.948,409.233z"/>
							<path style="fill:#018C6A;" d="M215.424,405.567L215.424,405.567c3.188,0.646,5.248,3.755,4.602,6.943l-2.789,13.755
								c-0.646,3.188-3.755,5.248-6.942,4.602l0,0c-3.188-0.646-5.248-3.755-4.602-6.943l2.789-13.755
								C209.128,406.981,212.236,404.92,215.424,405.567z"/>
							<path style="fill:#018C6A;" d="M269.328,396.397L269.328,396.397c3.188,0.646,5.248,3.755,4.602,6.942l-2.789,13.755
								c-0.646,3.188-3.755,5.248-6.943,4.602l0,0c-3.188-0.646-5.248-3.755-4.602-6.943l2.789-13.755
								C263.032,397.811,266.14,395.751,269.328,396.397z"/>
							<path style="fill:#018C6A;" d="M246.016,391.231L246.016,391.231c-3.011,1.229-6.449-0.215-7.679-3.226l-5.305-12.994
								c-1.229-3.011,0.215-6.449,3.226-7.679l0,0c3.011-1.23,6.449,0.215,7.679,3.226l5.305,12.994
								C250.472,386.564,249.027,390.002,246.016,391.231z"/>
							<path style="fill:#018C6A;" d="M182.537,237.041L182.537,237.041c3.151,0.808,5.049,4.018,4.241,7.168l-3.488,13.595
								c-0.808,3.151-4.018,5.049-7.168,4.241l0,0c-3.151-0.808-5.049-4.018-4.241-7.168l3.488-13.595
								C176.177,238.132,179.387,236.233,182.537,237.041z"/>
							<path style="fill:#018C6A;" d="M207.841,342.038L207.841,342.038c3.107-0.962,6.406,0.777,7.368,3.884l4.151,13.407
								c0.962,3.107-0.777,6.406-3.884,7.368h0c-3.107,0.962-6.406-0.777-7.368-3.884l-4.151-13.407
								C202.995,346.298,204.734,343,207.841,342.038z"/>
							<path style="fill:#018C6A;" d="M136.262,370.919L136.262,370.919c3.107-0.962,6.406,0.777,7.368,3.884l4.151,13.407
								c0.962,3.107-0.777,6.406-3.884,7.368l0,0c-3.107,0.962-6.406-0.777-7.368-3.884l-4.151-13.407
								C131.416,375.18,133.155,371.881,136.262,370.919z"/>
							<path style="fill:#018C6A;" d="M156.165,269.208L156.165,269.208c2.713,1.794,3.458,5.448,1.664,8.161l-7.742,11.707
								c-1.794,2.713-5.448,3.458-8.161,1.664l0,0c-2.713-1.794-3.458-5.448-1.664-8.161l7.742-11.706
								C149.799,268.159,153.452,267.414,156.165,269.208z"/>
							<path style="fill:#018C6A;" d="M160.37,185.244c-2.182,2.413-1.994,6.137,0.418,8.318c2.413,2.182,6.137,1.994,8.318-0.418
								l9.413-10.41c1.224-1.354,1.702-3.12,1.46-4.795c-4.735,0.551-9.969,1.389-15.403,2.653L160.37,185.244z"/>
							<path style="fill:#018C6A;" d="M127.287,422.499c-1.901-2.639-5.582-3.237-8.221-1.336l-2.184,1.573l-1.949,15.921
								l11.018-7.937C128.59,428.819,129.188,425.138,127.287,422.499z"/>
							<path style="fill:#018C6A;" d="M283.285,369.288c-0.611,0.123-1.212,0.341-1.781,0.669c-2.817,1.626-3.782,5.228-2.156,8.045
								l6.351,11L283.285,369.288z"/>
							<path style="fill:#018C6A;" d="M291.81,438.923l-1.246-10.177l-8.986,9.763c-0.121,0.131-0.214,0.276-0.32,0.415H291.81z"/>
							<path style="fill:#018C6A;" d="M237.921,438.923h13.601l-3.439-5.956c-1.626-2.817-5.228-3.782-8.045-2.156
								c-2.817,1.626-3.782,5.228-2.156,8.045L237.921,438.923z"/>
							<path style="fill:#018C6A;" d="M179.812,438.923h11.859l-0.225-1.924c-0.378-3.231-3.303-5.543-6.534-5.166
								c-3.231,0.378-5.543,3.303-5.166,6.534L179.812,438.923z"/>
						</g>
						<path style="opacity:0.4;fill:#FFFFFF;" d="M172.648,278.365h-6.374c-12.781,0-23.142-10.361-23.142-23.141v-43.345
							c0-12.781,10.361-23.141,23.142-23.141h6.374c12.781,0,23.141,10.361,23.141,23.141v43.345
							C195.789,268.004,185.428,278.365,172.648,278.365z"/>
					</g>
				</g>
				<g>
					<g>
						<path style="fill:#343946;" d="M204.728,152.373h-12.199c-14.232,0-25.77-11.538-25.77-25.77V98.731
							c0-10.933,8.863-19.796,19.796-19.796h24.146c10.933,0,19.796,8.863,19.796,19.796v27.871
							C230.498,140.835,218.96,152.373,204.728,152.373z"/>
						<g>
							<path style="fill:#AF756D;" d="M204.093,173.071h-10.929c-4.372,0-7.917-3.545-7.917-7.917v-16.408
								c0-4.372,3.545-7.917,7.917-7.917h10.929c4.372,0,7.917,3.545,7.917,7.917v16.408
								C212.01,169.527,208.466,173.071,204.093,173.071z"/>
						</g>
						<g>
							<g>
								<path style="fill:#AF756D;" d="M158.165,130.503c-0.096,4.708,3.674,8.603,8.421,8.7c4.747,0.097,8.672-3.642,8.768-8.35
									c0.096-4.708-3.674-8.603-8.421-8.699C162.187,122.057,158.261,125.795,158.165,130.503z"/>
								<g>
									<path style="fill:#343946;" d="M171.386,132.576c-0.019,0-0.038-0.001-0.058-0.003c-0.372-0.031-0.65-0.358-0.619-0.731
										c0.001-0.022,0.163-2.237-1.159-3.551c-0.793-0.787-1.989-1.116-3.57-0.978c-0.359,0.04-0.701-0.243-0.734-0.616
										c-0.032-0.373,0.243-0.702,0.617-0.734c2.001-0.172,3.563,0.288,4.651,1.375c1.769,1.765,1.556,4.503,1.546,4.619
										C172.03,132.309,171.734,132.576,171.386,132.576z"/>
								</g>
							</g>
							<g>
								<path style="fill:#AF756D;" d="M239.092,130.503c0.096,4.708-3.674,8.603-8.42,8.7c-4.747,0.097-8.672-3.642-8.768-8.35
									c-0.096-4.708,3.674-8.603,8.421-8.699C235.071,122.057,238.997,125.795,239.092,130.503z"/>
								<g>
									<path style="fill:#343946;" d="M225.871,132.576c-0.348,0-0.644-0.266-0.674-0.62c-0.01-0.115-0.223-2.853,1.546-4.619
										c1.089-1.087,2.657-1.545,4.651-1.375c0.374,0.033,0.649,0.362,0.617,0.734c-0.032,0.373-0.361,0.656-0.734,0.616
										c-1.583-0.138-2.777,0.19-3.57,0.978c-1.322,1.313-1.16,3.529-1.159,3.551c0.031,0.373-0.247,0.7-0.619,0.731
										C225.91,132.575,225.89,132.576,225.871,132.576z"/>
								</g>
							</g>
						</g>
						<path style="fill:#AF756D;" d="M204.141,156.467h-11.025c-11.063,0-20.031-8.968-20.031-20.031v-25.304
							c0-11.063,8.968-20.031,20.031-20.031h11.025c11.063,0,20.031,8.968,20.031,20.031v25.304
							C224.172,147.499,215.204,156.467,204.141,156.467z"/>
						<g>
							<path style="fill:#9B5F59;" d="M188.043,132.203c0,3.693-2.994,6.688-6.688,6.688c-3.693,0-6.688-2.994-6.688-6.688
								s2.994-6.687,6.688-6.687C185.049,125.516,188.043,128.51,188.043,132.203z"/>
							<path style="fill:#9B5F59;" d="M222.59,132.203c0,3.693-2.994,6.688-6.687,6.688c-3.693,0-6.688-2.994-6.688-6.688
								s2.994-6.687,6.688-6.687C219.596,125.516,222.59,128.51,222.59,132.203z"/>
						</g>
						<path style="fill:#343946;" d="M217.378,135.907l-3.794,1.09c-2.776-4.29-8.423-7.234-14.955-7.234
							c-6.514,0-12.15,2.928-14.934,7.199l-3.671-1.054l-6.938-11.6v13.203c0,10.469,8.487,18.957,18.957,18.957h5.454h2.41h5.454
							c10.469,0,18.957-8.487,18.957-18.957v-13.203L217.378,135.907z"/>
						<g>
							<path style="fill:#343946;" d="M191.278,81.957c-3.695-2.791-9.395-2.471-14.702,0.331
								c-5.897,3.774-9.816,10.366-9.816,17.886v6.711c0.325,0.346,0.672,0.675,1.063,0.97c5.368,4.055,14.971,1.545,21.448-5.607
								C195.747,95.097,196.646,86.012,191.278,81.957z"/>
							<g>
								
									<path style="fill:none;stroke:#343946;stroke-width:2;stroke-linecap:round;stroke-linejoin:round;stroke-miterlimit:10;" d="
									M207.004,112.284c-3.355-1.513-6.661-3.59-9.712-6.205c-3.988-3.419-7.031-7.321-9.027-11.285"/>
							</g>
							<path style="fill:#343946;" d="M222.023,83.228c-1.513-0.986-3.158-1.884-4.953-2.638c-1.08-0.454-2.169-0.825-3.258-1.152
								c-1.468-0.321-2.989-0.502-4.554-0.502h-10.548c-4.05,1.132-7.28,3.391-8.92,6.645c-3.782,7.502,2.299,17.43,13.583,22.175
								c11.148,4.688,23.188,2.554,27.124-4.732v-2.849C230.498,93.242,227.162,87.104,222.023,83.228z"/>
							<g style="opacity:0.4;">
								<path style="fill:#FFFFFF;" d="M214.844,107.644c-3.356,0-6.882-0.723-10.18-2.11c-6.205-2.609-10.801-7.173-12.294-12.207
									c-0.337-1.136,0.311-2.331,1.447-2.668c1.136-0.336,2.331,0.311,2.667,1.447c1.115,3.758,4.887,7.387,9.844,9.472
									c3.56,1.498,7.402,2.075,10.814,1.629c1.171-0.16,2.253,0.674,2.406,1.849c0.154,1.175-0.674,2.252-1.849,2.406
									C216.769,107.584,215.813,107.644,214.844,107.644z"/>
							</g>
							<g style="opacity:0.4;">
								<path style="fill:#FFFFFF;" d="M173.78,106.995c-1.126,0-2.072-0.879-2.14-2.018c-0.071-1.183,0.831-2.199,2.014-2.27
									c3.695-0.221,7.722-2.364,10.774-5.733c0.797-0.878,2.153-0.944,3.031-0.15c0.878,0.796,0.945,2.152,0.15,3.031
									c-3.788,4.181-8.909,6.849-13.699,7.136C173.866,106.994,173.823,106.995,173.78,106.995z"/>
							</g>
						</g>
						<g>
							<polygon style="fill:#9B5F59;" points="198.377,116.471 195.714,127.612 201.543,127.496 							"/>
							<g>
								<path style="fill:#FFFFFF;" d="M203.403,135.907c-0.3,2.382-2.311,4.231-4.774,4.231c-2.463,0-4.474-1.849-4.774-4.231
									H203.403z"/>
							</g>
							<g>
								<path style="fill:#343946;" d="M186.912,119.889c0,1.681-1.362,3.043-3.043,3.043c-1.68,0-3.043-1.362-3.043-3.043
									c0-1.681,1.362-3.043,3.043-3.043C185.55,116.846,186.912,118.209,186.912,119.889z"/>
								<path style="fill:#343946;" d="M216.431,119.889c0,1.681-1.362,3.043-3.043,3.043s-3.043-1.362-3.043-3.043
									c0-1.681,1.362-3.043,3.043-3.043S216.431,118.209,216.431,119.889z"/>
							</g>
						</g>
					</g>
					<g>
						<path style="fill:#018C6A;" d="M219.503,186.808h-38.741c-5.032,0-9.111-4.079-9.111-9.111v-9.801
							c0-5.032,4.079-9.111,9.111-9.111h38.741c5.032,0,9.111,4.079,9.111,9.111v9.801
							C228.614,182.729,224.535,186.808,219.503,186.808z"/>
						<g>
							<path style="fill:#343946;" d="M220.224,186.782c1.751-0.101,3.365-0.703,4.701-1.672v-24.627
								c-1.336-0.969-2.949-1.572-4.701-1.672V186.782z"/>
							<rect x="209.003" y="158.785" style="fill:#343946;" width="4.701" height="28.023"/>
							<rect x="197.782" y="158.785" style="fill:#343946;" width="4.701" height="28.023"/>
							<rect x="186.561" y="158.785" style="fill:#343946;" width="4.701" height="28.023"/>
							<path style="fill:#343946;" d="M175.34,185.109c1.336,0.969,2.949,1.572,4.701,1.672v-27.971
								c-1.751,0.101-3.364,0.704-4.701,1.672V185.109z"/>
						</g>
						<path style="opacity:0.4;fill:#FFFFFF;" d="M199.524,178.411h-18.01c-4.918,0-8.906-3.987-8.906-8.906l0,0
							c0-4.918,3.987-8.906,8.906-8.906h18.01c4.918,0,8.906,3.987,8.906,8.906l0,0
							C208.429,174.424,204.442,178.411,199.524,178.411z"/>
					</g>
				</g>
			</g>
			<g>
				<g>
					<g>
						<g>
							
								<ellipse transform="matrix(0.2537 -0.9673 0.9673 0.2537 -39.1019 398.7464)" style="fill:#1FD297;" cx="238.863" cy="224.714" rx="30.942" ry="30.942"/>
							
								<ellipse transform="matrix(0.7071 -0.7071 0.7071 0.7071 -75.4798 267.2033)" style="fill:#1FD297;" cx="284.803" cy="224.714" rx="30.942" ry="30.942"/>
						</g>
						<g>
							<circle style="fill:#1FD297;" cx="242.678" cy="188.885" r="28.012"/>
							<circle style="fill:#1FD297;" cx="280.987" cy="188.885" r="28.012"/>
						</g>
						<circle style="fill:#1FD297;" cx="261.833" cy="160.165" r="29.487"/>
					</g>
					<g>
						<g>
							
								<line style="fill:none;stroke:#343946;stroke-width:2;stroke-linecap:round;stroke-linejoin:round;stroke-miterlimit:10;" x1="240.31" y1="184.897" x2="261.451" y2="201.291"/>
							
								<line style="fill:none;stroke:#343946;stroke-width:3;stroke-linecap:round;stroke-linejoin:round;stroke-miterlimit:10;" x1="230.498" y1="212.066" x2="261.451" y2="233.547"/>
						</g>
						<g>
							
								<line style="fill:none;stroke:#343946;stroke-width:2;stroke-linecap:round;stroke-linejoin:round;stroke-miterlimit:10;" x1="283.894" y1="184.897" x2="262.754" y2="201.291"/>
							
								<line style="fill:none;stroke:#343946;stroke-width:3;stroke-linecap:round;stroke-linejoin:round;stroke-miterlimit:10;" x1="293.707" y1="212.066" x2="262.754" y2="233.547"/>
						</g>
						<g>
							<path style="fill:#343946;" d="M261.6,288.111L261.6,288.111c3.554-0.421,6.175-3.522,6-7.096l-6-122.204h-0.298l-6,122.204
								c-0.176,3.574,2.446,6.675,6,7.096l0,0v0.035l0.149-0.018l0.149,0.018V288.111z"/>
							<g style="opacity:0.4;">
								<g>
									<path style="fill:#FFFFFF;" d="M259.815,261.239c-0.008,0-0.015,0-0.024,0c-0.539-0.013-0.966-0.461-0.954-1.001
										l1.426-58.975c0.014-0.539,0.421-0.992,1.001-0.953c0.539,0.013,0.966,0.461,0.954,1.001l-1.426,58.975
										C260.779,260.817,260.344,261.239,259.815,261.239z"/>
								</g>
								<g>
									<path style="fill:#FFFFFF;" d="M261.354,197.604c-0.008,0-0.015,0-0.024,0c-0.539-0.013-0.966-0.461-0.953-1.001
										l0.096-3.987c0.013-0.531,0.449-0.954,0.977-0.954c0.008,0,0.015,0,0.024,0c0.539,0.013,0.966,0.461,0.954,1.001
										l-0.096,3.987C262.318,197.182,261.883,197.604,261.354,197.604z"/>
								</g>
							</g>
						</g>
					</g>
					<g>
						<g style="opacity:0.4;">
							<path style="fill:#FFFFFF;" d="M228.053,249.615c-0.441,0-0.888-0.1-1.31-0.311c-5.335-2.669-9.771-7.065-12.49-12.378
								c-0.737-1.441-0.167-3.208,1.275-3.946c1.442-0.738,3.209-0.167,3.947,1.275c2.153,4.209,5.667,7.691,9.892,9.805
								c1.448,0.725,2.035,2.486,1.311,3.934C230.164,249.022,229.128,249.615,228.053,249.615z"/>
						</g>
						<g style="opacity:0.4;">
							<path style="fill:#FFFFFF;" d="M304.342,241.299c-0.52,0-1.046-0.137-1.523-0.429c-1.383-0.843-1.82-2.647-0.978-4.03
								c2.119-3.476,3.239-7.479,3.239-11.575c0-1.619,1.313-2.932,2.932-2.932c1.62,0,2.932,1.313,2.932,2.932
								c0,5.173-1.417,10.231-4.096,14.628C306.296,240.799,305.331,241.299,304.342,241.299z"/>
						</g>
						<g style="opacity:0.4;">
							<path style="fill:#FFFFFF;" d="M223.702,185.945c-0.325,0-0.656-0.054-0.98-0.169c-1.526-0.541-2.325-2.217-1.784-3.744
								c1.818-5.128,5.306-9.642,9.823-12.711c1.341-0.91,3.164-0.561,4.074,0.777c0.91,1.34,0.562,3.163-0.777,4.074
								c-3.492,2.372-6.188,5.86-7.592,9.82C226.04,185.194,224.909,185.945,223.702,185.945z"/>
						</g>
						<g style="opacity:0.4;">
							<g>
								<path style="fill:#FFFFFF;" d="M259.7,142.914c-2.016,0-3.728-1.55-3.892-3.595c-0.174-2.152,1.43-4.038,3.583-4.212
									c0.677-0.055,1.368-0.082,2.054-0.082c2.159,0,3.91,1.751,3.91,3.91c0,2.159-1.751,3.91-3.91,3.91
									c-0.477,0-0.956,0.019-1.426,0.057C259.912,142.91,259.806,142.914,259.7,142.914z"/>
							</g>
							<g>
								<path style="fill:#FFFFFF;" d="M241.193,157.26c-0.424,0-0.855-0.069-1.279-0.216c-2.04-0.706-3.122-2.933-2.416-4.974
									c2.012-5.815,6.074-10.697,11.439-13.747c1.877-1.069,4.264-0.411,5.331,1.466c1.068,1.877,0.411,4.264-1.466,5.331
									c-3.713,2.111-6.523,5.488-7.914,9.507C244.328,156.245,242.813,157.26,241.193,157.26z"/>
							</g>
						</g>
					</g>
				</g>
				<g>
					<path style="fill:#343946;" d="M219.729,287.642l6.534,67.121c0.984,10.104,9.477,17.81,19.628,17.81h0.399h31.94h0.398
						c10.151,0,18.645-7.706,19.628-17.81l6.534-67.121H219.729z"/>
					<g>
						<path style="fill:#343946;" d="M300.652,301.13h-75.604c-6.832,0-12.37-5.538-12.37-12.37v0c0-6.832,5.538-12.37,12.37-12.37
							h75.604c6.832,0,12.37,5.538,12.37,12.37v0C313.022,295.592,307.484,301.13,300.652,301.13z"/>
						<path style="opacity:0.4;fill:#FFFFFF;" d="M265.85,294.197h-42.039c-4.14,0-7.497-3.356-7.497-7.497l0,0
							c0-4.14,3.356-7.497,7.497-7.497h42.039c4.14,0,7.497,3.356,7.497,7.497l0,0C273.346,290.841,269.99,294.197,265.85,294.197z"
							/>
					</g>
				</g>
			</g>
			<g>
				<g>
					<g>
						<path style="fill:#9B5F59;" d="M221.558,312.048L221.558,312.048c0.207-2.952,2.768-5.177,5.72-4.969l30.911,2.17
							c2.952,0.207,5.177,2.769,4.97,5.721l0,0c-0.208,2.952-2.769,5.177-5.72,4.969l-30.911-2.17
							C223.576,317.562,221.351,315,221.558,312.048z"/>
						<path style="fill:#9B5F59;" d="M224.852,323.037L224.852,323.037c0.208-2.96,2.776-5.191,5.736-4.983l30.881,2.168
							c2.96,0.208,5.191,2.776,4.983,5.736l0,0c-0.208,2.96-2.776,5.191-5.736,4.983l-30.881-2.168
							C226.875,328.565,224.644,325.997,224.852,323.037z"/>
						<path style="fill:#9B5F59;" d="M222.253,333.017L222.253,333.017c0.216-3.073,2.882-5.389,5.955-5.173l30.472,2.14
							c3.073,0.216,5.39,2.882,5.174,5.955l0,0c-0.216,3.073-2.882,5.389-5.955,5.173l-30.472-2.14
							C224.353,338.757,222.037,336.09,222.253,333.017z"/>
						<path style="fill:#9B5F59;" d="M218.35,342.428L218.35,342.428c0.188-2.676,2.51-4.693,5.186-4.505l31.909,2.24
							c2.676,0.188,4.694,2.51,4.506,5.187l0,0c-0.188,2.676-2.51,4.693-5.186,4.505l-31.909-2.241
							C220.179,347.426,218.161,345.104,218.35,342.428z"/>
						
							<rect x="183.494" y="297.637" transform="matrix(-0.0701 0.9975 -0.9975 -0.0701 543.2776 144.4691)" style="fill:#9B5F59;" width="41.618" height="55.63"/>
						<g>
							
								<line style="fill:none;stroke:#7F4744;stroke-width:2;stroke-linecap:round;stroke-linejoin:round;stroke-miterlimit:10;" x1="258.448" y1="320.01" x2="234.535" y2="318.331"/>
							
								<line style="fill:none;stroke:#7F4744;stroke-width:2;stroke-linecap:round;stroke-linejoin:round;stroke-miterlimit:10;" x1="261.611" y1="331.004" x2="233.781" y2="329.05"/>
							
								<line style="fill:none;stroke:#7F4744;stroke-width:2;stroke-linecap:round;stroke-linejoin:round;stroke-miterlimit:10;" x1="258.212" y1="341.134" x2="232.594" y2="339.335"/>
						</g>
						<path style="fill:#9B5F59;" d="M201.972,315.602L201.972,315.602c1.706,3.485,5.915,4.928,9.4,3.222l28.221-13.814
							c3.485-1.706,4.928-5.914,3.222-9.4l0,0c-1.706-3.485-5.915-4.928-9.4-3.222l-28.222,13.814
							C201.708,307.909,200.266,312.117,201.972,315.602z"/>
					</g>
					<g>
						<g>
							<path style="fill:#FFFFFF;" d="M54.57,303.815c0.021-0.135,0.052-0.271,0.092-0.401
								c9.789-31.884,42.136-28.043,42.136-28.043l41.398,6.214l57.518,9.968l-3.433,75.929c0,0-112.479,28.43-135.82-21.137
								c-3.551-7.542-4.941-15.834-4.644-24.545c0,0,0.576-7.122,0.942-9.474C53.094,310.176,54.57,303.815,54.57,303.815z"/>
							<path style="fill:#FFFFFF;" d="M54.57,303.815c0.021-0.135,0.052-0.271,0.092-0.401
								c9.789-31.884,42.136-28.043,42.136-28.043l41.398,6.214l57.518,9.968l-3.433,75.929c0,0-112.479,28.43-135.82-21.137
								c-3.551-7.542-4.941-15.834-4.644-24.545c0,0,0.576-7.122,0.942-9.474C53.094,310.176,54.57,303.815,54.57,303.815z"/>
							<g>
								<defs>
									<path id="SVGID_1_" d="M54.57,303.815c0.021-0.135,0.052-0.271,0.092-0.401c9.789-31.884,42.136-28.043,42.136-28.043
										l41.398,6.214l57.518,9.968l-3.433,75.929c0,0-112.479,28.43-135.82-21.137c-3.551-7.542-4.941-15.834-4.644-24.545
										c0,0,0.576-7.122,0.942-9.474C53.094,310.176,54.57,303.815,54.57,303.815z"/>
								</defs>
								<clipPath id="SVGID_00000105387456473919411780000016035280272437192326_">
									<use xlink:href="#SVGID_1_"  style="overflow:visible;"/>
								</clipPath>
								<g style="clip-path:url(#SVGID_00000105387456473919411780000016035280272437192326_);">
									<path style="fill:#018C6A;" d="M154.301,378.864L154.301,378.864c-2.3,2.3-6.029,2.3-8.329,0l-9.924-9.924
										c-2.3-2.3-2.3-6.029,0-8.329l0,0c2.3-2.3,6.029-2.3,8.329,0l9.924,9.924C156.601,372.835,156.601,376.564,154.301,378.864z
										"/>
									<path style="fill:#018C6A;" d="M71.759,354.552L71.759,354.552c0.616,3.194-1.474,6.282-4.667,6.898l-13.781,2.658
										c-3.194,0.616-6.282-1.473-6.898-4.667l0,0c-0.616-3.194,1.473-6.282,4.667-6.898l13.781-2.659
										C68.054,349.269,71.143,351.358,71.759,354.552z"/>
									<path style="fill:#018C6A;" d="M81.312,323.238L81.312,323.238c-0.98,3.101-4.289,4.821-7.391,3.841l-13.382-4.23
										c-3.101-0.98-4.821-4.289-3.841-7.391v0c0.98-3.101,4.289-4.821,7.391-3.841l13.382,4.23
										C80.572,316.828,82.292,320.137,81.312,323.238z"/>
									<path style="fill:#018C6A;" d="M91.642,270.279L91.642,270.279c2.52,2.056,2.897,5.766,0.84,8.286l-8.872,10.875
										c-2.056,2.52-5.766,2.897-8.286,0.84l0,0c-2.52-2.056-2.896-5.766-0.84-8.286l8.872-10.875
										C85.411,268.599,89.121,268.223,91.642,270.279z"/>
									<path style="fill:#018C6A;" d="M160.021,322.697L160.021,322.697c1.288,2.987-0.088,6.452-3.075,7.74l-12.887,5.559
										c-2.987,1.288-6.452-0.088-7.74-3.075l0,0c-1.288-2.987,0.089-6.452,3.075-7.74l12.887-5.559
										C155.267,318.333,158.733,319.71,160.021,322.697z"/>
									<path style="fill:#018C6A;" d="M115.611,350.365L115.611,350.365c-0.808,3.151-4.018,5.049-7.168,4.241l-13.595-3.488
										c-3.151-0.808-5.049-4.018-4.241-7.168l0,0c0.808-3.151,4.018-5.049,7.169-4.241l13.594,3.488
										C114.52,344.005,116.419,347.215,115.611,350.365z"/>
									<path style="fill:#018C6A;" d="M119.174,299.917L119.174,299.917c1.288,2.987-0.089,6.452-3.075,7.741l-12.887,5.559
										c-2.987,1.288-6.452-0.089-7.741-3.075l0,0c-1.288-2.987,0.089-6.452,3.075-7.74l12.887-5.559
										C114.42,295.553,117.885,296.93,119.174,299.917z"/>
									<path style="fill:#018C6A;" d="M154.08,298.171L154.08,298.171c-2.354,2.244-6.082,2.155-8.327-0.199l-9.684-10.159
										c-2.244-2.354-2.155-6.082,0.199-8.327h0c2.354-2.244,6.082-2.155,8.327,0.199l9.684,10.159
										C156.523,292.198,156.434,295.926,154.08,298.171z"/>
									<path style="opacity:0.4;fill:#FFFFFF;" d="M54.57,303.815c0.021-0.135,0.052-0.271,0.092-0.401
										c9.789-31.884,42.136-28.043,42.136-28.043l41.398,6.214l57.518,9.968l-3.433,75.929c0,0-112.479,28.43-135.82-21.137
										c-3.551-7.542-4.941-15.834-4.644-24.545c0,0,0.576-7.122,0.942-9.474C53.094,310.176,54.57,303.815,54.57,303.815z"/>
								</g>
							</g>
						</g>
						<g>
							<path style="fill:#018C6A;" d="M162.945,372.921c17.165-2.364,29.336-5.44,29.336-5.44l3.433-75.929l-26.264-4.552
								L162.945,372.921z"/>
							<g>
								<polygon style="fill:#343946;" points="165.601,337.831 193.59,338.533 193.811,333.65 165.971,332.952 								"/>
								<polygon style="fill:#343946;" points="164.097,357.708 192.803,355.938 193.025,351.027 164.469,352.788 								"/>
								<polygon style="fill:#343946;" points="194.366,321.379 194.586,316.496 167.281,315.651 166.911,320.529 								"/>
								<polygon style="fill:#343946;" points="168.239,302.994 195.105,305.029 195.326,300.143 168.608,298.12 								"/>
							</g>
							<path style="opacity:0.4;fill:#FFFFFF;" d="M184.82,295.393l0.035,0.004c4.589,0.596,7.918,4.665,7.594,9.28l-2.094,29.827
								c-0.321,4.579-4.13,8.129-8.72,8.129l0,0c-5.065,0-9.069-4.291-8.72-9.343l2.059-29.831
								C175.32,298.437,179.827,294.745,184.82,295.393z"/>
						</g>
					</g>
				</g>
				<g>
					<path style="fill:#9B5F59;" d="M267.938,362.804L267.938,362.804c2.739-1.118,5.867,0.195,6.986,2.934l1.224,2.995
						c1.119,2.74-0.195,5.868-2.935,6.987l0,0c-2.739,1.118-5.867-0.195-6.986-2.934l-1.223-2.995
						C263.884,367.051,265.198,363.923,267.938,362.804z"/>
					<path style="fill:#9B5F59;" d="M279.117,360.705L279.117,360.705c2.905-0.56,5.715,1.34,6.276,4.245l0.83,4.297
						c0.561,2.906-1.34,5.716-4.246,6.277l0,0c-2.905,0.561-5.715-1.34-6.276-4.245l-0.83-4.297
						C274.31,364.076,276.211,361.266,279.117,360.705z"/>
					<path style="fill:#9B5F59;" d="M288.698,359.484L288.698,359.484c2.905-0.56,5.715,1.34,6.276,4.245l0.83,4.297
						c0.561,2.906-1.34,5.716-4.246,6.277h0c-2.905,0.561-5.715-1.34-6.276-4.245l-0.83-4.297
						C283.89,362.855,285.792,360.045,288.698,359.484z"/>
				</g>
			</g>
			<g>
				<g>
					<path style="fill:#EAEAEA;" d="M442.802,438.923c-2.954-90.631-33.487-161.901-70.731-161.901s-67.777,71.269-70.73,161.901
						H442.802z"/>
					<g>
						<defs>
							<path id="SVGID_00000068678765109694370160000016327216449490175106_" d="M442.802,438.923
								c-2.954-90.631-33.487-161.901-70.731-161.901s-67.777,71.269-70.73,161.901H442.802z"/>
						</defs>
						<clipPath id="SVGID_00000029760455493784343180000004615239968731120823_">
							<use xlink:href="#SVGID_00000068678765109694370160000016327216449490175106_"  style="overflow:visible;"/>
						</clipPath>
						<g style="clip-path:url(#SVGID_00000029760455493784343180000004615239968731120823_);">
							<polygon style="fill:#EDC556;" points="341.25,285.442 346.248,298.877 331.805,295.85 							"/>
							<polygon style="fill:#EDC556;" points="318.633,317.616 330.679,309.846 330.829,324.603 							"/>
							<polygon style="fill:#EDC556;" points="404.77,349.716 418.375,345.202 414.834,359.527 							"/>
							<polygon style="fill:#EDC556;" points="374.236,363.617 381.695,375.857 366.94,375.63 							"/>
							<polygon style="fill:#EDC556;" points="411.255,381.999 410.079,396.285 398.285,387.414 							"/>
							<polygon style="fill:#EDC556;" points="437.195,362.548 444.692,374.765 429.936,374.583 							"/>
							<polygon style="fill:#EDC556;" points="413.404,314.491 426.88,319.377 415.225,328.428 							"/>
							<polygon style="fill:#EDC556;" points="421.416,419.915 432.698,411.072 434.202,425.752 							"/>
							<polygon style="fill:#EDC556;" points="359.565,406.215 370.846,397.372 372.35,412.052 							"/>
							<polygon style="fill:#EDC556;" points="339.638,436.055 340.603,421.753 352.527,430.448 							"/>
							<polygon style="fill:#EDC556;" points="367.657,457.328 373.597,444.282 381.694,456.619 							"/>
							<polygon style="fill:#EDC556;" points="431.462,457.922 424.128,445.605 438.88,445.984 							"/>
							<polygon style="fill:#EDC556;" points="306.231,425.067 296.296,414.734 310.75,411.758 							"/>
							<polygon style="fill:#EDC556;" points="320.278,455.318 310.343,444.985 324.797,442.009 							"/>
							<polygon style="fill:#EDC556;" points="388.937,434.743 396.762,422.733 402.922,436.143 							"/>
							<polygon style="fill:#EDC556;" points="329.531,399.177 315.782,395.122 326.864,385.377 							"/>
						</g>
					</g>
				</g>
				<g>
					<g>
						<g>
							<path style="fill:#AF756D;" d="M337.274,208.602v35.285c0,9.169,7.433,16.602,16.602,16.602h28.296v-51.887H337.274z"/>
							<path style="fill:#343946;" d="M424.068,237.149c0-5.102-1.802-9.781-4.802-13.441c2.061-2.665,3.3-5.998,3.3-9.628
								c0-8.708-7.059-15.768-15.767-15.768c-0.073,0-0.143,0.01-0.216,0.011c0-0.004,0.001-0.007,0.001-0.011
								c0-10.324-8.369-18.694-18.694-18.694c-5.278,0-10.036,2.196-13.435,5.714c-1.618-7.179-8.022-12.546-15.69-12.546
								c-8.175,0-14.91,6.099-15.943,13.992c-10.159,0.802-18.134,8.641-18.134,18.2c0,10.091,8.888,18.272,19.852,18.272
								c7.065,0,13.264-3.4,16.782-8.516c1.911,9.855,10.279,17.276,20.313,17.276c0.213,0,0.423-0.01,0.634-0.017
								c-0.412,1.65-0.634,3.376-0.634,5.155c0,1.076,0.082,2.134,0.236,3.167c-6.857,2.274-11.809,8.728-11.809,16.348
								c0,9.517,7.715,17.232,17.232,17.232c8.965,0,16.325-6.848,17.15-15.597C415.417,257.484,424.068,248.33,424.068,237.149z"/>
							<g>
								<path style="fill:#AF756D;" d="M370.195,279.974L370.195,279.974c-6.615,0-11.977-5.362-11.977-11.977v-31.508h23.954
									v31.508C382.172,274.611,376.81,279.974,370.195,279.974z"/>
								<g>
									
										<ellipse transform="matrix(0.9229 -0.3851 0.3851 0.9229 -61.7658 167.2803)" style="fill:#AF756D;" cx="386.782" cy="237.857" rx="10.185" ry="10.185"/>
									<g>
										<path style="fill:#343946;" d="M380.657,240.365c-0.501,0-0.915-0.395-0.934-0.9c-0.005-0.137-0.099-3.392,2.104-5.385
											c1.359-1.229,3.245-1.693,5.595-1.367c0.512,0.069,0.87,0.542,0.799,1.053c-0.07,0.512-0.543,0.877-1.053,0.799
											c-1.781-0.241-3.149,0.058-4.078,0.894c-1.557,1.399-1.499,3.914-1.499,3.94c0.016,0.515-0.388,0.947-0.903,0.965
											C380.678,240.365,380.668,240.365,380.657,240.365z"/>
									</g>
								</g>
							</g>
							<g>
								<g>
									<path style="fill:#343946;" d="M362.745,229.929c-0.045,1.561-1.346,2.79-2.907,2.745c-1.561-0.045-2.79-1.346-2.745-2.907
										c0.045-1.561,1.346-2.79,2.907-2.745C361.561,227.067,362.789,228.368,362.745,229.929z"/>
									<path style="fill:#343946;" d="M344.255,228.985c-0.038,1.332-1.149,2.381-2.481,2.343
										c-1.332-0.038-2.381-1.149-2.343-2.482c0.038-1.332,1.149-2.381,2.482-2.343
										C343.244,226.542,344.293,227.653,344.255,228.985z"/>
								</g>
								<g>
									<path style="fill:#9B5F59;" d="M372.269,240.602c-0.111,3.88-3.346,6.935-7.226,6.823c-3.88-0.111-6.934-3.346-6.823-7.226
										c0.111-3.88,3.346-6.934,7.226-6.823C369.326,233.488,372.38,236.723,372.269,240.602z"/>
									<path style="fill:#9B5F59;" d="M338.379,233.786c-0.378,0-0.747,0.039-1.105,0.107v9.993c0,0.526,0.031,1.045,0.079,1.558
										c0.334,0.059,0.676,0.095,1.027,0.095c3.246,0,5.877-2.631,5.877-5.877C344.256,236.418,341.625,233.786,338.379,233.786z"
										/>
								</g>
								<polygon style="fill:#9B5F59;" points="350.564,226.752 350.894,237.271 345.968,234.072 								"/>
								<g>
									<path style="fill:#343946;" d="M349.677,249.543c-0.051,0-0.102-0.001-0.152-0.002c-2.921-0.085-5.227-2.527-5.143-5.447
										c0.015-0.512,0.436-0.918,0.944-0.918c0.009,0,0.018,0,0.029,0c0.521,0.016,0.932,0.451,0.917,0.973
										c-0.054,1.877,1.429,3.448,3.307,3.501c1.871,0.053,3.448-1.43,3.501-3.306c0.015-0.521,0.466-0.925,0.972-0.918
										c0.522,0.015,0.933,0.45,0.918,0.972C354.888,247.266,352.529,249.543,349.677,249.543z"/>
								</g>
							</g>
							<g style="opacity:0.4;">
								<g>
									<path style="fill:#FFFFFF;" d="M375.322,224.817c-0.316,0-0.635-0.078-0.931-0.242c-3.595-1.999-6.609-4.972-8.717-8.6
										c-0.532-0.916-0.221-2.091,0.695-2.624c0.917-0.535,2.09-0.222,2.625,0.695c1.76,3.029,4.272,5.51,7.262,7.173
										c0.927,0.516,1.261,1.684,0.745,2.61C376.651,224.462,375.996,224.817,375.322,224.817z"/>
								</g>
								<g>
									<path style="fill:#FFFFFF;" d="M341.705,217.658c-0.186,0-0.376-0.027-0.563-0.084c-6.482-1.988-11.644-6.759-13.81-12.763
										c-0.36-0.997,0.157-2.097,1.154-2.457c0.997-0.36,2.097,0.156,2.457,1.154c1.758,4.874,5.991,8.759,11.324,10.395
										c1.014,0.311,1.584,1.384,1.273,2.398C343.287,217.126,342.526,217.658,341.705,217.658z"/>
								</g>
							</g>
						</g>
					</g>
					<g>
						<path style="fill:#EDC556;" d="M383.825,285.464h-28.933c-3.976,0-7.199-3.223-7.199-7.199v-7.074
							c0-3.976,3.223-7.199,7.199-7.199h28.933c3.976,0,7.199,3.223,7.199,7.199v7.074
							C391.024,282.241,387.801,285.464,383.825,285.464z"/>
						<path style="opacity:0.4;fill:#FFFFFF;" d="M368.308,277.548h-12.624c-3.319,0-6.01-2.691-6.01-6.01l0,0
							c0-3.319,2.691-6.01,6.01-6.01h12.624c3.319,0,6.01,2.691,6.01,6.01l0,0C374.318,274.857,371.627,277.548,368.308,277.548z"/>
						<g>
							<path style="fill:#FFFFFF;" d="M350.897,284.38c0.956,0.609,2.07,0.987,3.268,1.062v-21.428
								c-1.198,0.075-2.313,0.453-3.268,1.062V284.38z"/>
							<rect x="357.628" y="263.992" style="fill:#FFFFFF;" width="3.268" height="21.472"/>
							<rect x="364.359" y="263.992" style="fill:#FFFFFF;" width="3.268" height="21.472"/>
							<rect x="371.09" y="263.992" style="fill:#FFFFFF;" width="3.268" height="21.472"/>
							<rect x="377.821" y="263.992" style="fill:#FFFFFF;" width="3.268" height="21.472"/>
							<path style="fill:#FFFFFF;" d="M384.552,285.442c1.198-0.075,2.313-0.453,3.268-1.062v-19.303
								c-0.956-0.609-2.07-0.987-3.268-1.062V285.442z"/>
						</g>
					</g>
				</g>
				<g>
					<g>
						<path style="fill:#AF756D;" d="M279.432,294.793l0.025-0.024c1.512-1.441,1.569-3.836,0.128-5.348l-19.938-20.916
							c-1.441-1.512-3.836-1.569-5.348-0.128l-0.025,0.023c-1.512,1.441-1.569,3.836-0.128,5.348l19.939,20.916
							C275.525,296.177,277.92,296.234,279.432,294.793z"/>
						<path style="fill:#AF756D;" d="M283.681,302.816l0.296-0.128c2.113-0.912,3.088-3.364,2.176-5.478l-11.14-25.827
							c-0.912-2.113-3.364-3.088-5.478-2.176l-0.296,0.127c-2.113,0.912-3.088,3.364-2.176,5.478l11.14,25.827
							C279.115,302.754,281.567,303.728,283.681,302.816z"/>
						<path style="fill:#AF756D;" d="M271.475,297.478l0.029-0.027c1.515-1.444,1.573-3.843,0.128-5.359l-19.928-20.906
							c-1.444-1.515-3.844-1.573-5.359-0.128l-0.029,0.027c-1.515,1.444-1.573,3.844-0.128,5.359l19.928,20.905
							C267.56,298.865,269.96,298.923,271.475,297.478z"/>
						<path style="fill:#AF756D;" d="M267.385,303.664l0.086-0.082c1.557-1.485,1.617-3.951,0.132-5.508l-19.782-20.752
							c-1.485-1.557-3.951-1.616-5.508-0.132l-0.086,0.082c-1.557,1.485-1.617,3.951-0.132,5.508l19.782,20.752
							C263.361,305.09,265.827,305.149,267.385,303.664z"/>
						<path style="fill:#AF756D;" d="M264.419,310.397L264.419,310.397c1.377-1.313,1.429-3.493,0.117-4.871l-20.404-21.405
							c-1.313-1.377-3.493-1.429-4.871-0.117l0,0c-1.377,1.313-1.429,3.493-0.117,4.87l20.405,21.405
							C260.862,311.657,263.042,311.709,264.419,310.397z"/>
						<path style="fill:#AF756D;" d="M295.633,305.36l-19.267-20.212c-0.379-0.398-1.008-0.413-1.405-0.034l-19.923,18.992
							c-0.397,0.379-0.412,1.008-0.034,1.406l19.267,20.212L295.633,305.36z"/>
						
							<line style="fill:none;stroke:#9B5F59;stroke-linecap:round;stroke-linejoin:round;stroke-miterlimit:10;" x1="253.652" y1="273.231" x2="265.031" y2="285.168"/>
						
							<line style="fill:none;stroke:#9B5F59;stroke-linecap:round;stroke-linejoin:round;stroke-miterlimit:10;" x1="246.273" y1="276.534" x2="259.515" y2="290.425"/>
						
							<line style="fill:none;stroke:#9B5F59;stroke-linecap:round;stroke-linejoin:round;stroke-miterlimit:10;" x1="242.237" y1="282.929" x2="254.426" y2="295.717"/>
					</g>
					<g>
						<g>
							<path style="fill:#FFFFFF;" d="M381.089,289.323c-26.723-5.085-52.231,30.695-52.231,30.695l-36.455-25.821l-30.436,28.263
								c16.679,41.474,53.64,65.403,53.64,65.403s22.54,16.035,53.752-13.029c29.433-27.408,34.426-39.095,36.375-44.756
								C409.29,319.749,411.53,295.115,381.089,289.323z"/>
							<g>
								<polygon style="fill:#F2D881;" points="291.439,334.541 299.962,346.067 285.245,347.158 								"/>
								<polygon style="fill:#F2D881;" points="302.596,323.15 309.716,310.708 316.639,323.741 								"/>
								<polygon style="fill:#F2D881;" points="317.57,339.767 331.805,341.451 322.52,352.922 								"/>
								<polygon style="fill:#F2D881;" points="332.823,368.534 341.317,380.081 326.598,381.135 								"/>
								<polygon style="fill:#F2D881;" points="352.527,343.762 365.957,348.771 354.219,357.715 								"/>
								<polygon style="fill:#F2D881;" points="337.914,326.054 349.342,317.401 350.599,332.105 								"/>
								<polygon style="fill:#F2D881;" points="377.703,315.351 385.199,327.569 370.443,327.386 								"/>
								<path style="fill:#F2D881;" d="M407.305,323.525l-4.51-4.268l-3.886,13.507l6.454-1.65c0.136-0.366,0.259-0.712,0.371-1.036
									C406.355,328.273,406.931,326.026,407.305,323.525z"/>
								<path style="fill:#F2D881;" d="M350.692,303.421l13.872-5.034l-6.232-4.836c-2.265,1.174-4.455,2.511-6.548,3.948
									L350.692,303.421z"/>
								<path style="fill:#F2D881;" d="M390.478,292.09c-1.224-0.514-2.518-0.993-3.908-1.419l-3.37,11.715l14.297-3.655
									L390.478,292.09z"/>
								<path style="fill:#F2D881;" d="M395.138,347.732l-13.601,3.542l5.72,5.723c3.129-3.403,5.704-6.419,7.846-9.109
									L395.138,347.732z"/>
								<path style="fill:#F2D881;" d="M361.598,381.299c2.305-1.698,4.669-3.639,7.086-5.848l0.281-3.782l-12.926,5.519
									L361.598,381.299z"/>
								<path style="fill:#F2D881;" d="M295.836,371.484c1.531,1.49,3.018,2.883,4.447,4.177l8.259-2.694l-11.031-9.154
									L295.836,371.484z"/>
							</g>
							<path style="opacity:0.4;fill:#FFFFFF;" d="M312.555,345.114l-12.253-9.743c-5.528-4.395-6.446-12.44-2.05-17.967l0,0
								c4.395-5.528,12.44-6.446,17.968-2.05l12.253,9.743c5.528,4.395,6.446,12.44,2.05,17.967l0,0
								C326.127,348.591,318.083,349.509,312.555,345.114z"/>
						</g>
						<g>
							<path style="fill:#EDC556;" d="M306.74,304.352l-14.338-10.155l-30.436,28.263c2.744,6.822,6.042,13.159,9.629,19.004
								L306.74,304.352z"/>
							<g>
								<polygon style="fill:#FFFFFF;" points="275.969,309.457 289.07,323.011 291.761,320.169 278.835,306.797 								"/>
								<polygon style="fill:#FFFFFF;" points="287.883,298.394 285.007,301.064 298.407,313.152 301.096,310.312 								"/>
								<polygon style="fill:#FFFFFF;" points="278.493,334.18 281.228,331.292 269.649,315.326 266.763,318.006 								"/>
							</g>
							<path style="opacity:0.4;fill:#FFFFFF;" d="M278.187,310.352l12.245-11.403c1.524-1.419,3.837-1.568,5.53-0.355l0,0
								c2.093,1.499,2.447,4.472,0.763,6.42l-11.084,12.82c-1.776,2.054-4.974,2.012-6.695-0.088l-1.161-1.417
								C276.32,314.543,276.497,311.926,278.187,310.352z"/>
						</g>
					</g>
				</g>
			</g>
		</g>
		
			<line style="fill:none;stroke:#343946;stroke-width:3;stroke-linecap:round;stroke-linejoin:round;stroke-miterlimit:10;" x1="32.493" y1="438.923" x2="462.319" y2="438.923"/>
	</g>
</g>
</svg>
