<?xml version="1.0" encoding="utf-8"?>
<!-- Generator: Adobe Illustrator 27.5.0, SVG Export Plug-In . SVG Version: 6.00 Build 0)  -->
<svg version="1.1" xmlns="http://www.w3.org/2000/svg" xmlns:xlink="http://www.w3.org/1999/xlink" x="0px" y="0px"
	 viewBox="0 0 500 500" style="enable-background:new 0 0 500 500;" xml:space="preserve">
<g id="BACKGROUND">
	<rect style="opacity:0.19;fill:#8BCDE5;" width="500" height="500"/>
</g>
<g id="OBJECTS">
	
		<ellipse transform="matrix(0.7071 -0.7071 0.7071 0.7071 -86.1738 241.7388)" style="fill:#8BCDE5;" cx="248.718" cy="224.89" rx="182.837" ry="182.837"/>
	<path style="opacity:0.52;fill:#FFFFFF;" d="M390.944,290.109c-0.608,5.126-7.553,8.212-10.514,2.848
		c-5.236-9.487-13.424-17.246-22.043-23.669c-29.342-21.868-92.857-46.265-113.296-0.688c-2.398,5.348-10.463,2.358-10.514-2.848
		c-0.168-17.162-6.312-33.782-15.219-48.289c-7.9-12.866-18.365-24.64-31.119-32.854c-14.347-9.24-31.48-12.719-48.36-13.022
		c-17.316-0.311-35.862,2.083-52.031,8.536c-6.438,2.57-12.509,5.865-18.516,9.293c-2.257,11.477-3.451,23.335-3.451,35.474
		c0,100.978,81.859,182.837,182.837,182.837c87.75,0,161.05-61.822,178.751-144.284
		C410.011,262.632,393.313,270.145,390.944,290.109z"/>
	<g style="opacity:0.29;">
		<path style="fill:#336149;" d="M159.75,394.753c-8.504-1.608-15.046-8.888-14.708-16.367c0.338-7.479,7.518-14.301,16.142-15.336
			c-10.763-4.26-17.36-15.165-15.235-25.185c2.125-10.02,12.775-18.223,24.594-18.944c0.827-12.285,19.207-19.611,32.377-14.785
			c13.17,4.826,20.148,17.923,20.168,30.229c8.196-5.137,19.755-5.979,28.84-2.101c9.084,3.878,15.289,12.305,15.479,21.022
			c9.438-6.505,24.323-4.632,33.152,2.477c8.829,7.109,12.217,18.139,11.597,28.524v10.924L159.75,394.753z"/>
	</g>
	<path style="fill:#5CA28B;" d="M420.78,404.631h-56.097c4.916,0,8.938-4.022,8.938-8.938v-1.584c0-4.916-4.022-8.938-8.938-8.938
		H133.498c-4.916,0-8.938,4.022-8.938,8.938v1.584c0,4.916,4.022,8.938,8.938,8.938H77.401c-7.051,0-12.821,5.769-12.821,12.821
		v1.383c0,7.051,5.769,12.821,12.821,12.821h24.907c-1.332,1.742-2.135,3.908-2.135,6.258v1.116c0,5.691,4.656,10.348,10.348,10.348
		H387.66c5.691,0,10.348-4.656,10.348-10.348v-1.116c0-2.35-0.803-4.516-2.135-6.258h24.907c7.051,0,12.821-5.769,12.821-12.821
		v-1.383C433.6,410.4,427.831,404.631,420.78,404.631z"/>
	<g>
		<g>
			<path style="fill:#8BCDE5;" d="M44.389,253.007c-4.615-4.489-8.91-10.598-7.464-16.872c0.901-3.909,4.163-7.173,8.072-8.076
				c3.909-0.903,8.272,0.599,10.796,3.717c2.446,3.02,3.075,7.083,3.51,10.945c-1.392-4.975,4.589-10.017,9.473-8.333
				c4.884,1.684,6.813,8.482,4.076,12.863c2.544-3.878,8.272-5.649,12.127-3.07c3.855,2.579,3.844,9.519-0.384,11.424H46.823
				L44.389,253.007z"/>
		</g>
		<g>
			<path style="fill:#8BCDE5;" d="M150.464,77.11c-3.855-2.58-9.582-0.808-12.127,3.07c2.737-4.381,0.808-11.18-4.076-12.863
				c-4.379-1.509-9.622,2.389-9.66,6.797c-0.447-3.379-1.2-6.787-3.323-9.408c-2.524-3.118-6.888-4.62-10.796-3.717
				c-3.908,0.903-7.171,4.167-8.072,8.076c-0.352,1.526-0.359,3.042-0.109,4.528c-0.313,0.033-0.624,0.088-0.929,0.192
				c-3.368,1.161-4.698,5.849-2.811,8.87c-1.755-2.674-5.704-3.896-8.362-2.117c-2.658,1.779-2.651,6.564,0.265,7.877h21.733
				l0.111,0.118h37.771C154.308,86.629,154.318,79.689,150.464,77.11z"/>
		</g>
		<g>
			<path style="fill:#8BCDE5;" d="M424.997,119.927c-3.855-2.58-9.582-0.808-12.127,3.07c2.737-4.381,0.808-11.18-4.076-12.863
				c-4.379-1.509-9.622,2.389-9.66,6.797c-0.447-3.379-1.2-6.787-3.323-9.408c-2.524-3.118-6.888-4.62-10.796-3.717
				c-3.909,0.903-7.171,4.167-8.072,8.076c-0.352,1.526-0.359,3.042-0.109,4.528c-0.313,0.033-0.624,0.088-0.929,0.192
				c-3.368,1.161-4.698,5.849-2.81,8.87c-1.755-2.674-5.704-3.896-8.362-2.117c-2.658,1.779-2.651,6.564,0.265,7.877h21.733
				l0.111,0.118h37.771C428.841,129.446,428.852,122.506,424.997,119.927z"/>
		</g>
		<g style="opacity:0.52;">
			<path style="fill:#FFFFFF;" d="M294.866,196.326c-3.855-2.579-9.582-0.808-12.127,3.07c2.737-4.381,0.808-11.18-4.076-12.864
				c-4.379-1.509-9.622,2.389-9.66,6.797c-0.447-3.379-1.2-6.787-3.323-9.408c-2.524-3.117-6.888-4.62-10.796-3.717
				c-3.908,0.903-7.171,4.167-8.072,8.076c-0.352,1.526-0.359,3.042-0.109,4.528c-0.313,0.033-0.624,0.087-0.929,0.192
				c-3.368,1.161-4.698,5.849-2.811,8.87c-1.755-2.674-5.704-3.896-8.362-2.117c-2.658,1.779-2.651,6.564,0.265,7.878H256.6
				l0.111,0.118h37.771C298.711,205.845,298.721,198.906,294.866,196.326z"/>
		</g>
		<g>
			<path style="fill:#8BCDE5;" d="M372.049,70.17h47.026c1.328-2.853,0.965-6.505-1.098-8.916c-2.512-2.936-7.233-3.672-10.519-1.64
				c0.488-4.292-0.262-8.785-2.505-12.477s-6.046-6.5-10.318-7.142c-4.773-0.718-9.867,1.438-12.674,5.365
				c-2.807,3.927-3.198,9.444-0.974,13.728c-3.044-1.297-6.893-2.486-9.374-0.296c-2.027,1.789-1.99,4.971-1.287,7.582
				C370.68,67.686,371.263,69.025,372.049,70.17z"/>
		</g>
		<g style="opacity:0.52;">
			<path style="fill:#FFFFFF;" d="M163,129.778h47.026c1.328-2.854,0.965-6.505-1.098-8.916c-2.512-2.936-7.233-3.672-10.519-1.64
				c0.488-4.292-0.262-8.785-2.505-12.477c-2.242-3.692-6.046-6.5-10.318-7.142c-4.773-0.718-9.867,1.438-12.674,5.365
				c-2.807,3.927-3.198,9.444-0.973,13.728c-3.044-1.297-6.893-2.486-9.374-0.296c-2.027,1.79-1.99,4.971-1.287,7.582
				C161.632,127.295,162.215,128.634,163,129.778z"/>
		</g>
	</g>
	<g>
		<g>
			<g>
				<path style="fill:#336149;" d="M339.951,250.119c-11.058-3.285-21.997-9.757-24.439-21.031
					c-2.441-11.274,3.372-23.827,13.55-29.257c-7.438-14.62-4.884-34.493,7.874-44.804c12.758-10.31,34.898-7.175,42.283,7.472
					c0.253-2.938,0.506-5.876,0.759-8.814c2.608,1.677,4.829,3.951,6.446,6.596c1.265-1.464,2.53-2.927,3.795-4.391
					c0.178,2.138,0.357,4.276,0.535,6.413c2.603-12.289,17.6-20.214,29.219-15.44c7.892,3.242,13.244,11.043,15.395,19.3
					c2.151,8.257,1.513,16.977,0.288,25.421c12.161-1.254,23.25,9.819,24.818,21.943c1.569,12.124-4.565,24.214-13.259,32.81
					C447.216,246.339,404.871,269.405,339.951,250.119z"/>
			</g>
			<g style="opacity:0.28;">
				<path style="fill:#2B3448;" d="M319.883,238.099c4.758,5.907,12.38,9.737,20.068,12.021c64.92,19.286,107.265-3.78,107.265-3.78
					c2.9-2.868,5.504-6.13,7.643-9.647C409.983,230.258,363.948,226.717,319.883,238.099z"/>
			</g>
			<path style="fill:#74471B;" d="M401.168,230.952l-10.572,72.372l-8.433-73.241c-4.554,0.332-9.059,1.055-13.597,0.749
				c1.708,8.948,13.327,71.372,10.381,98.46l22.239-1.082l12.69-96.162C409.643,231.653,405.393,231.447,401.168,230.952z"/>
			<path style="opacity:0.28;fill:#2B3448;" d="M401.168,230.952l-1.491,10.207c4.301,0.273,8.572,0.779,12.787,1.585l1.411-10.695
				C409.643,231.653,405.393,231.447,401.168,230.952z"/>
			<path style="opacity:0.28;fill:#2B3448;" d="M368.566,230.833c0.347,1.817,1.1,5.83,2.06,11.316
				c4.253-0.456,8.53-0.82,12.807-1.033l-1.27-11.032C377.609,230.415,373.104,231.138,368.566,230.833z"/>
			<path style="fill:#5CA28B;" d="M386.95,194.417c0.437,3.19-0.78,5.991-2.719,6.257c-1.939,0.266-3.865-2.104-4.303-5.294
				c-0.437-3.19,2.718-6.257,2.718-6.257S386.512,191.227,386.95,194.417z"/>
			<path style="fill:#5CA28B;" d="M372.399,211.527c2.47-2.065,5.49-2.522,6.745-1.021c1.255,1.501,0.271,4.393-2.199,6.458
				c-2.47,2.065-6.745,1.021-6.745,1.021S369.93,213.593,372.399,211.527z"/>
			<path style="fill:#5CA28B;" d="M348.5,221.532c2.47-2.065,5.49-2.522,6.745-1.021c1.255,1.501,0.27,4.392-2.199,6.458
				c-2.47,2.065-6.745,1.021-6.745,1.021S346.03,223.597,348.5,221.532z"/>
			<path style="fill:#5CA28B;" d="M400.747,188.659c-1.473,1.992-3.648,2.881-4.859,1.986c-1.211-0.895-0.998-3.236,0.475-5.227
				c1.473-1.992,4.859-1.986,4.859-1.986S402.22,186.667,400.747,188.659z"/>
			<path style="fill:#5CA28B;" d="M429.84,167.413c-1.473,1.992-3.648,2.881-4.859,1.986c-1.211-0.895-0.998-3.236,0.475-5.228
				c1.473-1.992,4.859-1.986,4.859-1.986S431.313,165.421,429.84,167.413z"/>
			<path style="fill:#5CA28B;" d="M418.281,190.473c-1.473,1.992-3.648,2.881-4.859,1.986c-1.211-0.895-0.998-3.236,0.475-5.228
				c1.473-1.992,4.859-1.986,4.859-1.986S419.754,188.481,418.281,190.473z"/>
			<path style="fill:#5CA28B;" d="M415.75,209.582c-0.432,2.439-1.984,4.204-3.467,3.941s-2.334-2.453-1.902-4.892
				s3.467-3.941,3.467-3.941S416.183,207.143,415.75,209.582z"/>
			<path style="opacity:0.38;fill:#2B3448;" d="M375.985,199.661c3.193,0.412,5.578,2.319,5.328,4.26
				c-0.25,1.941-3.042,3.18-6.235,2.768c-3.193-0.412-5.328-4.26-5.328-4.26S372.792,199.249,375.985,199.661z"/>
			<path style="opacity:0.38;fill:#2B3448;" d="M344.304,185.766c3.193,0.412,5.578,2.319,5.328,4.26
				c-0.25,1.941-3.042,3.18-6.235,2.768c-3.193-0.412-5.328-4.26-5.328-4.26S341.111,185.354,344.304,185.766z"/>
			<path style="opacity:0.38;fill:#2B3448;" d="M334.855,204.107c3.193,0.412,5.578,2.319,5.328,4.26
				c-0.25,1.941-3.042,3.18-6.235,2.768c-3.193-0.412-5.328-4.26-5.328-4.26S331.662,203.696,334.855,204.107z"/>
			<path style="opacity:0.38;fill:#2B3448;" d="M345.921,174.177c2.613,1.881,3.805,4.693,2.661,6.281
				c-1.143,1.588-4.188,1.351-6.801-0.529c-2.613-1.881-2.661-6.281-2.661-6.281S343.308,172.296,345.921,174.177z"/>
			<path style="opacity:0.38;fill:#2B3448;" d="M347.588,155.835c2.613,1.881,3.805,4.693,2.661,6.281
				c-1.143,1.588-4.188,1.351-6.801-0.529c-2.613-1.881-2.661-6.281-2.661-6.281S344.975,153.954,347.588,155.835z"/>
			<path style="fill:#5CA28B;" d="M325.544,223.57c3.185-0.473,5.999,0.712,6.287,2.648c0.288,1.936-2.06,3.889-5.245,4.362
				s-6.287-2.648-6.287-2.648S322.359,224.043,325.544,223.57z"/>
			<path style="opacity:0.38;fill:#2B3448;" d="M420.881,178.237c-1.826,2.652-4.613,3.901-6.225,2.791
				c-1.612-1.11-1.438-4.159,0.388-6.811c1.826-2.652,6.225-2.792,6.225-2.792S422.707,175.585,420.881,178.237z"/>
			<path style="opacity:0.38;fill:#2B3448;" d="M433.659,210.826c-3.156-0.635-5.402-2.706-5.016-4.624
				c0.386-1.919,3.258-2.959,6.414-2.323c3.156,0.635,5.015,4.624,5.015,4.624S436.816,211.461,433.659,210.826z"/>
			<path style="opacity:0.38;fill:#2B3448;" d="M375.418,191.831c1.801,1.25,2.644,3.151,1.884,4.245
				c-0.76,1.094-2.835,0.968-4.636-0.282c-1.801-1.25-1.884-4.245-1.884-4.245S373.618,190.581,375.418,191.831z"/>
			<path style="opacity:0.38;fill:#2B3448;" d="M352.016,212.533c1.12-1.885,2.956-2.861,4.101-2.18
				c1.146,0.68,1.167,2.76,0.047,4.644c-1.119,1.884-4.101,2.18-4.101,2.18S350.896,214.417,352.016,212.533z"/>
			<path style="opacity:0.38;fill:#2B3448;" d="M364.233,192.738c1.801,1.25,2.644,3.151,1.884,4.245
				c-0.76,1.094-2.835,0.968-4.636-0.282c-1.8-1.25-1.884-4.245-1.884-4.245S362.432,191.488,364.233,192.738z"/>
			<path style="opacity:0.38;fill:#2B3448;" d="M361.106,176.139c1.207,1.378,1.375,3.205,0.375,4.081
				c-1,0.876-2.789,0.469-3.996-0.909c-1.207-1.378-0.375-4.081-0.375-4.081S359.899,174.761,361.106,176.139z"/>
			<path style="opacity:0.38;fill:#2B3448;" d="M336.15,223.446c1.369-1.217,3.195-1.399,4.078-0.405
				c0.883,0.993,0.489,2.785-0.88,4.003c-1.369,1.217-4.078,0.405-4.078,0.405S334.781,224.663,336.15,223.446z"/>
			<path style="opacity:0.38;fill:#2B3448;" d="M331.697,216.601c1.369-1.217,3.195-1.399,4.078-0.405
				c0.883,0.993,0.489,2.785-0.88,4.003c-1.369,1.217-4.078,0.405-4.078,0.405S330.328,217.818,331.697,216.601z"/>
			<path style="opacity:0.38;fill:#2B3448;" d="M334.871,190.93c1.66,0.776,2.548,2.381,1.985,3.585
				c-0.563,1.204-2.365,1.551-4.024,0.775c-1.66-0.776-1.985-3.585-1.985-3.585S333.212,190.154,334.871,190.93z"/>
			<path style="opacity:0.38;fill:#2B3448;" d="M360.584,218.42c1.264-1.791,3.171-2.62,4.26-1.851
				c1.089,0.768,0.946,2.843-0.318,4.634c-1.264,1.791-4.26,1.851-4.26,1.851S359.32,220.211,360.584,218.42z"/>
			<path style="fill:#5CA28B;" d="M399.618,201.147c-1.47,1.583-3.443,2.143-4.405,1.249c-0.962-0.894-0.551-2.902,0.919-4.485
				c1.47-1.583,4.405-1.249,4.405-1.249S401.089,199.564,399.618,201.147z"/>
			<path style="fill:#5CA28B;" d="M407.478,192.38c-1.47,1.583-3.443,2.143-4.405,1.249c-0.962-0.894-0.551-2.902,0.919-4.485
				c1.47-1.583,4.405-1.249,4.405-1.249S408.949,190.797,407.478,192.38z"/>
			<path style="fill:#5CA28B;" d="M403.032,156.253c-1.47,1.583-3.443,2.143-4.405,1.249c-0.963-0.894-0.551-2.902,0.919-4.485
				c1.47-1.583,4.405-1.249,4.405-1.249S404.502,154.669,403.032,156.253z"/>
			<path style="fill:#5CA28B;" d="M425.701,208.889c1.659,1.385,2.321,3.325,1.479,4.333c-0.842,1.008-2.869,0.703-4.527-0.682
				c-1.659-1.385-1.479-4.333-1.479-4.333S424.042,207.504,425.701,208.889z"/>
			<path style="fill:#5CA28B;" d="M425.145,224.729c1.659,1.385,2.321,3.325,1.479,4.333c-0.842,1.008-2.869,0.703-4.527-0.682
				c-1.659-1.385-1.479-4.333-1.479-4.333S423.486,223.344,425.145,224.729z"/>
			<path style="fill:#5CA28B;" d="M429.328,217.958c1.659,1.385,2.321,3.325,1.479,4.333c-0.842,1.008-2.869,0.703-4.527-0.682
				c-1.659-1.385-1.479-4.333-1.479-4.333S427.67,216.573,429.328,217.958z"/>
			<path style="fill:#5CA28B;" d="M439.333,226.573c1.659,1.385,2.321,3.325,1.479,4.333c-0.842,1.008-2.869,0.703-4.527-0.682
				c-1.659-1.385-1.479-4.333-1.479-4.333S437.674,225.188,439.333,226.573z"/>
			<path style="fill:#5CA28B;" d="M451.005,226.851c1.659,1.385,2.321,3.325,1.479,4.333c-0.842,1.008-2.869,0.703-4.528-0.682
				c-1.659-1.385-1.479-4.333-1.479-4.333S449.346,225.466,451.005,226.851z"/>
			<path style="fill:#5CA28B;" d="M441,216.013c1.659,1.385,2.321,3.325,1.479,4.333c-0.842,1.008-2.869,0.703-4.527-0.682
				c-1.659-1.385-1.479-4.333-1.479-4.333S439.342,214.628,441,216.013z"/>
			<path style="fill:#5CA28B;" d="M451.561,216.569c1.659,1.385,2.321,3.325,1.479,4.333c-0.842,1.008-2.869,0.703-4.527-0.682
				c-1.659-1.385-1.479-4.333-1.479-4.333S449.902,215.184,451.561,216.569z"/>
			<path style="fill:#5CA28B;" d="M456.64,207.666c0.911,1.96,0.683,3.997-0.508,4.55c-1.191,0.553-2.895-0.587-3.805-2.546
				c-0.911-1.96,0.508-4.55,0.508-4.55S455.729,205.706,456.64,207.666z"/>
			<path style="fill:#5CA28B;" d="M447.106,206.173c1.659,1.385,2.321,3.325,1.479,4.333c-0.842,1.008-2.869,0.703-4.527-0.682
				c-1.659-1.385-1.479-4.333-1.479-4.333S445.447,204.789,447.106,206.173z"/>
			<path style="fill:#5CA28B;" d="M412.315,200.24c-1.47,1.583-3.443,2.143-4.405,1.249c-0.963-0.894-0.551-2.902,0.919-4.485
				c1.47-1.583,4.405-1.249,4.405-1.249S413.786,198.657,412.315,200.24z"/>
			<path style="fill:#5CA28B;" d="M361.087,206.656c2.141-1.247,3.262-3.312,2.504-4.613c-0.758-1.301-3.107-1.346-5.248-0.099
				c-2.141,1.247-2.504,4.613-2.504,4.613S358.946,207.902,361.087,206.656z"/>
			<path style="fill:#5CA28B;" d="M366.771,211.637c1.735-1.289,2.506-3.188,1.722-4.242c-0.783-1.054-2.824-0.864-4.559,0.424
				c-1.734,1.289-1.722,4.242-1.722,4.242S365.037,212.925,366.771,211.637z"/>
			<path style="fill:#5CA28B;" d="M372.33,225.532c1.734-1.289,2.505-3.188,1.722-4.242c-0.783-1.054-2.824-0.864-4.559,0.424
				c-1.735,1.289-1.722,4.242-1.722,4.242S370.595,226.82,372.33,225.532z"/>
			<path style="fill:#5CA28B;" d="M351.682,200.891c2.135,0.335,4.03-0.445,4.234-1.742c0.204-1.298-1.361-2.621-3.496-2.957
				c-2.135-0.335-4.234,1.742-4.234,1.742S349.548,200.556,351.682,200.891z"/>
			<path style="fill:#5CA28B;" d="M333.389,174.409c2.135,0.335,4.03-0.445,4.234-1.742c0.204-1.298-1.361-2.621-3.496-2.957
				c-2.135-0.335-4.234,1.742-4.234,1.742S331.255,174.073,333.389,174.409z"/>
			<path style="fill:#5CA28B;" d="M347.148,209.658c2.135,0.335,4.03-0.445,4.234-1.742c0.204-1.298-1.361-2.621-3.496-2.957
				c-2.135-0.335-4.234,1.742-4.234,1.742S345.013,209.323,347.148,209.658z"/>
			<path style="fill:#5CA28B;" d="M344.109,218.342c1.944-0.943,3.055-2.666,2.482-3.848s-2.614-1.375-4.558-0.432
				c-1.944,0.943-2.482,3.848-2.482,3.848S342.164,219.285,344.109,218.342z"/>
			<path style="fill:#5CA28B;" d="M324.1,217.508c1.944-0.943,3.055-2.666,2.482-3.848c-0.573-1.182-2.614-1.375-4.558-0.432
				c-1.944,0.943-2.482,3.847-2.482,3.847S322.155,218.451,324.1,217.508z"/>
			<path style="fill:#5CA28B;" d="M341.654,201.072c2.161,0.024,3.924-1.021,3.939-2.334c0.015-1.313-1.725-2.398-3.886-2.422
				c-2.161-0.024-3.939,2.334-3.939,2.334S339.494,201.048,341.654,201.072z"/>
			<path style="fill:#5CA28B;" d="M364.115,186.267c0.933,1.949,2.649,3.07,3.834,2.503c1.185-0.567,1.389-2.607,0.456-4.556
				c-0.933-1.949-3.834-2.503-3.834-2.503S363.182,184.318,364.115,186.267z"/>
			<path style="fill:#5CA28B;" d="M399.497,172.399c-0.955,1.938-0.774,3.98,0.404,4.561c1.178,0.58,2.907-0.52,3.862-2.459
				s-0.404-4.561-0.404-4.561S400.452,170.461,399.497,172.399z"/>
			<path style="fill:#5CA28B;" d="M416.808,152.888c-0.955,1.938-0.774,3.98,0.404,4.561s2.908-0.52,3.862-2.459
				c0.955-1.938-0.404-4.561-0.404-4.561S417.763,150.949,416.808,152.888z"/>
			<path style="fill:#5CA28B;" d="M407.834,165.73c-0.955,1.938-0.774,3.98,0.404,4.561c1.178,0.581,2.908-0.52,3.862-2.459
				c0.955-1.938-0.404-4.561-0.404-4.561S408.789,163.791,407.834,165.73z"/>
			<path style="fill:#5CA28B;" d="M417.005,162.395c-0.955,1.938-0.774,3.98,0.404,4.561s2.907-0.52,3.862-2.459
				c0.955-1.938-0.404-4.561-0.404-4.561S417.96,160.456,417.005,162.395z"/>
			<path style="fill:#5CA28B;" d="M427.287,184.406c-1.752,1.264-2.55,3.152-1.782,4.218c0.768,1.065,2.812,0.904,4.564-0.36
				c1.752-1.264,1.782-4.218,1.782-4.218S429.039,183.142,427.287,184.406z"/>
			<path style="fill:#5CA28B;" d="M391.637,169.376c-0.955,1.938-0.774,3.98,0.404,4.561c1.178,0.58,2.907-0.52,3.862-2.459
				c0.955-1.938-0.404-4.561-0.404-4.561S392.592,167.438,391.637,169.376z"/>
			<path style="fill:#5CA28B;" d="M383.413,207.792c0.183-2.153,1.393-3.808,2.701-3.697c1.309,0.111,2.221,1.947,2.038,4.1
				c-0.183,2.153-2.701,3.697-2.701,3.697S383.23,209.945,383.413,207.792z"/>
			<path style="fill:#5CA28B;" d="M381.577,221.271c0.183-2.153,1.393-3.808,2.701-3.697c1.309,0.111,2.221,1.947,2.038,4.1
				c-0.183,2.153-2.701,3.697-2.701,3.697S381.394,223.424,381.577,221.271z"/>
			<path style="fill:#5CA28B;" d="M384.735,180.356c0.551,2.089-0.031,4.055-1.301,4.39c-1.27,0.335-2.746-1.087-3.298-3.176
				c-0.551-2.089,1.301-4.39,1.301-4.39S384.184,178.267,384.735,180.356z"/>
			<path style="fill:#5CA28B;" d="M378.689,169.775c0.551,2.089-0.031,4.055-1.301,4.39c-1.27,0.335-2.746-1.087-3.298-3.176
				c-0.551-2.089,1.301-4.39,1.301-4.39S378.138,167.686,378.689,169.775z"/>
			<path style="opacity:0.38;fill:#2B3448;" d="M393.565,195.954c-0.015,2.161-1.093,3.905-2.406,3.895
				c-1.313-0.009-2.366-1.769-2.35-3.929c0.016-2.161,2.406-3.895,2.406-3.895S393.581,193.794,393.565,195.954z"/>
			<path style="opacity:0.38;fill:#2B3448;" d="M406.889,204.86c-0.015,2.161-1.093,3.905-2.406,3.895
				c-1.313-0.009-2.366-1.769-2.35-3.929c0.015-2.161,2.406-3.895,2.406-3.895S406.904,202.699,406.889,204.86z"/>
			<path style="opacity:0.38;fill:#2B3448;" d="M417.015,225.176c-0.015,2.161-1.093,3.905-2.406,3.895
				c-1.313-0.009-2.366-1.769-2.35-3.929c0.015-2.161,2.406-3.895,2.406-3.895S417.03,223.015,417.015,225.176z"/>
			<path style="opacity:0.38;fill:#2B3448;" d="M420.139,216.211c1.192,1.802,1.27,3.851,0.174,4.575
				c-1.096,0.724-2.95-0.15-4.142-1.952c-1.192-1.802-0.174-4.575-0.174-4.575S418.947,214.409,420.139,216.211z"/>
			<path style="opacity:0.38;fill:#2B3448;" d="M391.168,184.605c-0.015,2.161-1.093,3.905-2.406,3.895
				c-1.313-0.009-2.366-1.769-2.35-3.929c0.015-2.161,2.406-3.895,2.406-3.895S391.184,182.444,391.168,184.605z"/>
			<path style="opacity:0.38;fill:#2B3448;" d="M388.75,170.094c-0.015,2.161-1.093,3.905-2.406,3.896
				c-1.313-0.009-2.366-1.769-2.35-3.929c0.015-2.161,2.406-3.895,2.406-3.895S388.765,167.933,388.75,170.094z"/>
			<path style="opacity:0.38;fill:#2B3448;" d="M396.875,180.07c-1.113,1.852-2.929,2.804-4.054,2.128s-1.135-2.727-0.022-4.578
				c1.113-1.852,4.054-2.128,4.054-2.128S397.988,178.218,396.875,180.07z"/>
			<path style="opacity:0.38;fill:#2B3448;" d="M410.254,181.263c-1.113,1.852-2.929,2.804-4.054,2.128
				c-1.126-0.677-1.135-2.727-0.022-4.579c1.113-1.852,4.054-2.127,4.054-2.127S411.368,179.411,410.254,181.263z"/>
			<path style="opacity:0.38;fill:#2B3448;" d="M430.208,198.646c-2.011,0.792-4.031,0.443-4.512-0.779
				c-0.481-1.222,0.758-2.855,2.769-3.646c2.011-0.792,4.512,0.779,4.512,0.779S432.219,197.854,430.208,198.646z"/>
			<path style="opacity:0.38;fill:#2B3448;" d="M441.005,201.226c-2.081-0.582-3.481-2.079-3.128-3.344
				c0.354-1.265,2.327-1.819,4.408-1.237c2.081,0.582,3.128,3.344,3.128,3.344S443.086,201.808,441.005,201.226z"/>
			<path style="opacity:0.38;fill:#2B3448;" d="M430.462,177.643c-1.114,1.852-2.929,2.804-4.054,2.127
				c-1.126-0.677-1.135-2.727-0.022-4.578c1.113-1.852,4.054-2.128,4.054-2.128S431.575,175.791,430.462,177.643z"/>
			<path style="opacity:0.38;fill:#2B3448;" d="M412.755,156.529c-1.113,1.852-2.929,2.804-4.054,2.128
				c-1.126-0.677-1.135-2.727-0.022-4.579c1.113-1.852,4.054-2.127,4.054-2.127S413.869,154.678,412.755,156.529z"/>
			<path style="opacity:0.38;fill:#2B3448;" d="M403.783,164.303c-1.114,1.852-2.929,2.804-4.054,2.128
				c-1.126-0.677-1.135-2.727-0.022-4.579c1.113-1.852,4.054-2.127,4.054-2.127S404.897,162.452,403.783,164.303z"/>
			<path style="opacity:0.38;fill:#2B3448;" d="M421.44,201.517c-1.113,1.852-2.929,2.804-4.054,2.128
				c-1.126-0.677-1.135-2.727-0.022-4.578c1.114-1.852,4.054-2.128,4.054-2.128S422.553,199.666,421.44,201.517z"/>
			<path style="opacity:0.38;fill:#2B3448;" d="M389.893,206.512c-0.818-2-0.496-4.024,0.72-4.522
				c1.216-0.497,2.864,0.721,3.683,2.721c0.818,2-0.72,4.522-0.72,4.522S390.711,208.512,389.893,206.512z"/>
			<path style="opacity:0.38;fill:#2B3448;" d="M391.533,217.287c-0.818-2-0.496-4.024,0.72-4.522
				c1.216-0.497,2.864,0.721,3.683,2.721c0.818,2-0.72,4.522-0.72,4.522S392.351,219.287,391.533,217.287z"/>
			<path style="opacity:0.38;fill:#2B3448;" d="M402.395,210.391c0.503,2.101-0.124,4.053-1.402,4.359
				c-1.277,0.306-2.721-1.15-3.224-3.251c-0.503-2.101,1.401-4.359,1.401-4.359S401.892,208.289,402.395,210.391z"/>
			<path style="opacity:0.38;fill:#2B3448;" d="M409.046,216.135c0.503,2.101-0.124,4.053-1.401,4.359
				c-1.277,0.306-2.721-1.149-3.224-3.251c-0.503-2.101,1.401-4.359,1.401-4.359S408.542,214.033,409.046,216.135z"/>
			<path style="opacity:0.38;fill:#2B3448;" d="M404.677,222.917c0.503,2.101-0.124,4.053-1.401,4.359
				c-1.277,0.306-2.721-1.15-3.224-3.251s1.401-4.359,1.401-4.359S404.174,220.816,404.677,222.917z"/>
			<path style="opacity:0.38;fill:#2B3448;" d="M394.395,223.751c0.503,2.101-0.124,4.053-1.402,4.359
				c-1.277,0.306-2.721-1.15-3.224-3.251c-0.503-2.101,1.401-4.359,1.401-4.359S393.892,221.65,394.395,223.751z"/>
			<path style="opacity:0.38;fill:#2B3448;" d="M377.855,185.052c1.552,1.504,2.068,3.488,1.154,4.431
				c-0.914,0.943-2.913,0.489-4.465-1.015c-1.552-1.504-1.154-4.431-1.154-4.431S376.303,183.548,377.855,185.052z"/>
			<path style="opacity:0.38;fill:#2B3448;" d="M357.298,184.145c1.552,1.504,2.068,3.488,1.154,4.431
				c-0.914,0.943-2.913,0.489-4.465-1.015c-1.552-1.504-1.154-4.431-1.154-4.431S355.746,182.641,357.298,184.145z"/>
			<path style="opacity:0.38;fill:#2B3448;" d="M333.398,179.143c1.552,1.504,2.068,3.488,1.154,4.431
				c-0.914,0.943-2.913,0.489-4.465-1.015c-1.552-1.504-1.154-4.431-1.154-4.431S331.846,177.639,333.398,179.143z"/>
			<path style="opacity:0.38;fill:#2B3448;" d="M340.623,162.747c1.552,1.504,2.069,3.488,1.154,4.431
				c-0.914,0.943-2.913,0.489-4.465-1.015c-1.552-1.504-1.154-4.431-1.154-4.431S339.072,161.243,340.623,162.747z"/>
			<path style="fill:#5CA28B;" d="M351.893,169.608c1.552,1.504,2.068,3.488,1.154,4.431c-0.914,0.943-2.913,0.489-4.465-1.015
				c-1.552-1.504-1.154-4.431-1.154-4.431S350.342,168.105,351.893,169.608z"/>
			<path style="fill:#5CA28B;" d="M360.786,155.713c1.552,1.504,2.068,3.488,1.154,4.431c-0.914,0.943-2.913,0.489-4.465-1.015
				c-1.552-1.504-1.154-4.431-1.154-4.431S359.235,154.21,360.786,155.713z"/>
			<path style="opacity:0.38;fill:#2B3448;" d="M363.843,166.274c1.552,1.504,2.068,3.487,1.154,4.431
				c-0.914,0.943-2.913,0.489-4.465-1.015c-1.552-1.504-1.154-4.431-1.154-4.431S362.292,164.77,363.843,166.274z"/>
			<path style="fill:#5CA28B;" d="M370.513,163.217c1.552,1.504,2.068,3.487,1.154,4.431c-0.914,0.943-2.913,0.489-4.465-1.015
				c-1.552-1.504-1.154-4.431-1.154-4.431S368.961,161.713,370.513,163.217z"/>
			<path style="opacity:0.38;fill:#2B3448;" d="M356.896,165.718c1.552,1.504,2.068,3.488,1.154,4.431
				c-0.914,0.943-2.913,0.489-4.465-1.015c-1.552-1.504-1.154-4.431-1.154-4.431S355.344,164.214,356.896,165.718z"/>
			<path style="opacity:0.38;fill:#2B3448;" d="M372.472,174.642c0.795,2.009,0.449,4.03-0.773,4.513
				c-1.221,0.483-2.856-0.754-3.65-2.764c-0.795-2.009,0.773-4.513,0.773-4.513S371.678,172.633,372.472,174.642z"/>
			<path style="fill:#336149;" d="M381.844,227.66c0,0-4.447,5.836-3.613,9.727c0,0,4.724,0,8.059-8.615L381.844,227.66z"/>
			<path style="fill:#336149;" d="M385.855,229.278c0,0-1.888,7.09,0.366,10.369c0,0,4.368-1.8,4.169-11.036L385.855,229.278z"/>
			<path style="fill:#336149;" d="M450.328,235.391c0,0-1.888,7.09,0.365,10.369c0,0,4.368-1.8,4.169-11.036L450.328,235.391z"/>
			<path style="fill:#336149;" d="M447.549,233.24c0,0-5.498,4.858-5.438,8.837c0,0,4.634,0.92,9.582-6.881L447.549,233.24z"/>
		</g>
		<g>
			<g>
				<path style="fill:#336149;" d="M184.643,184.413c9.414-5.347,2.644-22.2-4.185-30.601c-6.829-8.401-18.502-12.551-29.102-10.346
					c1.282-17.413-8.419-35.037-23.566-43.722s-34.947-8.268-49.991,0.596c-15.043,8.864-24.935,25.68-25.91,43.113
					c-1.78-2.226-4.419-3.746-7.237-4.17c1.298,3.935,3.149,7.687,5.48,11.112c-2.823,0.674-5.646,1.348-8.469,2.021
					c3.557,2.265,7.614,3.741,11.796,4.291c-7.564,3.706-12.633,12.01-12.47,20.431c0.163,8.422,5.548,16.524,13.249,19.935
					C54.238,197.073,115.3,223.798,184.643,184.413z"/>
			</g>
			<g style="opacity:0.28;">
				<path style="fill:#2B3448;" d="M171.495,176.852c-12.014-1.736-24.357-1.471-36.437-0.664
					c-29.906,1.996-59.089,7.447-87.699,15.994c1.959,2.049,4.283,3.741,6.879,4.891c0,0,61.062,26.726,130.405-12.66
					c1.541-0.876,2.642-2.064,3.386-3.469C182.686,178.76,176.766,177.613,171.495,176.852z"/>
			</g>
			<path style="fill:#74471B;" d="M126.572,176.671c-9.354,1.241-18.835,1.512-28.093,3.417c-0.053,0.082-0.117,0.157-0.164,0.242
				c0,0,10.59,102.199-1.059,134.136l29.652-1.065C126.907,313.402,120.785,189.274,126.572,176.671z"/>
			<path style="opacity:0.28;fill:#2B3448;" d="M115.599,190.022c3.024-0.468,6.062-0.837,9.12-1.048
				c0.393-6.054,0.99-10.424,1.852-12.302c-9.354,1.241-18.835,1.512-28.093,3.417c-0.053,0.082-0.117,0.157-0.164,0.242
				c0,0,0.444,4.288,1.05,11.376C104.756,190.954,110.17,190.378,115.599,190.022z"/>
			<path style="fill:#5CA28B;" d="M106.238,132.526c0.521,3.803-0.929,7.142-3.241,7.459c-2.311,0.317-4.608-2.509-5.129-6.311
				c-0.521-3.803,3.241-7.459,3.241-7.459S105.717,128.723,106.238,132.526z"/>
			<path style="fill:#5CA28B;" d="M88.892,152.925c2.945-2.462,6.545-3.007,8.041-1.217c1.496,1.79,0.322,5.237-2.622,7.699
				c-2.945,2.462-8.041,1.217-8.041,1.217S85.948,155.387,88.892,152.925z"/>
			<path style="fill:#336149;" d="M68.215,185.457c0.212-3.832,2.272-6.835,4.601-6.706c2.329,0.129,4.046,3.34,3.834,7.172
				c-0.212,3.832-4.601,6.706-4.601,6.706S68.003,189.289,68.215,185.457z"/>
			<path style="fill:#336149;" d="M78.297,188.047c-2.141-3.186-2.307-6.823-0.371-8.124c1.936-1.301,5.242,0.226,7.383,3.411
				c2.141,3.186,0.371,8.124,0.371,8.124S80.438,191.232,78.297,188.047z"/>
			<path style="fill:#336149;" d="M84.785,183.361c-2.141-3.186-2.307-6.823-0.371-8.124c1.936-1.301,5.242,0.226,7.383,3.411
				c2.141,3.185,0.371,8.124,0.371,8.124S86.926,186.547,84.785,183.361z"/>
			<path style="fill:#336149;" d="M136.682,179.037c-2.141-3.186-2.307-6.823-0.371-8.124c1.936-1.301,5.242,0.226,7.383,3.411
				c2.141,3.186,0.371,8.124,0.371,8.124S138.824,182.222,136.682,179.037z"/>
			<path style="fill:#336149;" d="M146.053,176.874c-2.141-3.186-2.307-6.823-0.371-8.124c1.936-1.301,5.242,0.226,7.383,3.411
				c2.141,3.186,0.371,8.124,0.371,8.124S148.194,180.06,146.053,176.874z"/>
			<path style="fill:#5CA28B;" d="M122.687,125.662c-1.756,2.375-4.349,3.434-5.793,2.367c-1.443-1.067-1.19-3.857,0.566-6.232
				c1.756-2.375,5.793-2.367,5.793-2.367S124.443,123.287,122.687,125.662z"/>
			<path style="fill:#5CA28B;" d="M143.59,127.824c-1.756,2.375-4.349,3.434-5.793,2.367c-1.443-1.067-1.19-3.857,0.566-6.232
				c1.756-2.375,5.793-2.367,5.793-2.367S145.346,125.45,143.59,127.824z"/>
			<path style="fill:#5CA28B;" d="M140.573,150.606c-0.515,2.908-2.366,5.011-4.133,4.698c-1.768-0.313-2.783-2.924-2.268-5.833
				c0.515-2.908,4.133-4.698,4.133-4.698S141.089,147.698,140.573,150.606z"/>
			<path style="opacity:0.38;fill:#2B3448;" d="M93.167,138.778c3.807,0.491,6.65,2.765,6.352,5.079
				c-0.299,2.314-3.626,3.791-7.433,3.3c-3.807-0.491-6.352-5.079-6.352-5.079S89.36,138.287,93.167,138.778z"/>
			<path style="opacity:0.38;fill:#2B3448;" d="M92.491,129.443c2.146,1.49,3.152,3.756,2.246,5.061
				c-0.906,1.305-3.38,1.154-5.527-0.336c-2.146-1.49-2.246-5.061-2.246-5.061S90.344,127.953,92.491,129.443z"/>
			<path style="opacity:0.38;fill:#2B3448;" d="M64.592,154.123c1.335-2.247,3.524-3.41,4.889-2.599
				c1.366,0.811,1.391,3.29,0.056,5.537c-1.335,2.247-4.889,2.599-4.889,2.599S63.257,156.37,64.592,154.123z"/>
			<path style="opacity:0.38;fill:#2B3448;" d="M54.14,178.991c1.335-2.247,3.523-3.41,4.889-2.599
				c1.366,0.811,1.391,3.29,0.056,5.537c-1.335,2.246-4.889,2.599-4.889,2.599S52.805,181.238,54.14,178.991z"/>
			<path style="opacity:0.38;fill:#2B3448;" d="M79.156,130.524c2.146,1.49,3.152,3.756,2.246,5.061
				c-0.906,1.305-3.38,1.154-5.527-0.336s-2.246-5.061-2.246-5.061S77.009,129.034,79.156,130.524z"/>
			<path style="opacity:0.38;fill:#2B3448;" d="M75.428,110.736c1.439,1.643,1.639,3.821,0.447,4.865
				c-1.192,1.044-3.325,0.559-4.764-1.084c-1.439-1.643-0.447-4.865-0.447-4.865S73.989,109.094,75.428,110.736z"/>
			<path style="opacity:0.38;fill:#2B3448;" d="M74.806,161.142c1.507-2.135,3.781-3.123,5.078-2.207
				c1.298,0.916,1.128,3.389-0.379,5.524c-1.507,2.135-5.078,2.207-5.078,2.207S73.299,163.277,74.806,161.142z"/>
			<path style="opacity:0.38;fill:#2B3448;" d="M78.428,176.068c-0.921-2.446-0.463-4.882,1.024-5.441
				c1.487-0.56,3.438,0.969,4.359,3.414c0.921,2.445-1.024,5.441-1.024,5.441S79.349,178.513,78.428,176.068z"/>
			<path style="opacity:0.38;fill:#2B3448;" d="M45.302,174.102c1.507-2.135,3.78-3.123,5.078-2.207
				c1.298,0.916,1.128,3.389-0.379,5.524c-1.507,2.135-5.078,2.207-5.078,2.207S43.795,176.237,45.302,174.102z"/>
			<path style="fill:#5CA28B;" d="M121.341,140.55c-1.753,1.888-4.104,2.554-5.251,1.489c-1.147-1.066-0.657-3.46,1.096-5.347
				c1.753-1.888,5.251-1.489,5.251-1.489S123.094,138.662,121.341,140.55z"/>
			<path style="fill:#5CA28B;" d="M130.712,130.098c-1.753,1.888-4.104,2.554-5.251,1.489c-1.147-1.065-0.657-3.459,1.096-5.347
				c1.753-1.888,5.251-1.489,5.251-1.489S132.464,128.21,130.712,130.098z"/>
			<path style="fill:#5CA28B;" d="M152.436,149.779c1.977,1.651,2.767,3.964,1.764,5.166c-1.004,1.202-3.42,0.838-5.398-0.813
				c-1.977-1.651-1.764-5.166-1.764-5.166S150.458,148.128,152.436,149.779z"/>
			<path style="fill:#5CA28B;" d="M156.76,160.591c1.977,1.651,2.767,3.964,1.763,5.166c-1.003,1.202-3.42,0.838-5.397-0.813
				c-1.978-1.651-1.764-5.166-1.764-5.166S154.783,158.94,156.76,160.591z"/>
			<path style="fill:#5CA28B;" d="M164.456,152.623c1.977,1.651,2.767,3.964,1.764,5.166c-1.004,1.202-3.42,0.838-5.398-0.813
				c-1.977-1.651-1.764-5.166-1.764-5.166S162.478,150.972,164.456,152.623z"/>
			<path style="fill:#5CA28B;" d="M151.121,168.48c1.977,1.651,2.767,3.964,1.763,5.166c-1.004,1.202-3.42,0.838-5.398-0.813
				c-1.977-1.651-1.763-5.166-1.763-5.166S149.143,166.829,151.121,168.48z"/>
			<path style="fill:#5CA28B;" d="M170.583,165.957c1.977,1.651,2.767,3.964,1.763,5.166c-1.004,1.202-3.42,0.838-5.398-0.813
				c-1.977-1.651-1.763-5.166-1.763-5.166S168.605,164.307,170.583,165.957z"/>
			<path style="fill:#5CA28B;" d="M136.478,139.469c-1.753,1.888-4.104,2.554-5.251,1.489c-1.147-1.065-0.657-3.46,1.096-5.347
				s5.251-1.489,5.251-1.489S138.231,137.581,136.478,139.469z"/>
			<path style="fill:#5CA28B;" d="M75.405,147.117c2.552-1.486,3.889-3.948,2.985-5.5c-0.903-1.551-3.705-1.604-6.257-0.118
				c-2.552,1.486-2.985,5.5-2.985,5.5S72.853,148.603,75.405,147.117z"/>
			<path style="fill:#5CA28B;" d="M82.183,153.055c2.068-1.536,2.987-3.801,2.053-5.057c-0.934-1.257-3.367-1.03-5.435,0.506
				c-2.068,1.536-2.053,5.057-2.053,5.057S80.115,154.591,82.183,153.055z"/>
			<path style="fill:#5CA28B;" d="M73.512,179.064c0.649-2.493-0.053-4.834-1.568-5.228c-1.515-0.395-3.27,1.306-3.919,3.799
				c-0.649,2.493,1.568,5.228,1.568,5.228S72.863,181.557,73.512,179.064z"/>
			<path style="fill:#5CA28B;" d="M92.575,171.625c2.068-1.536,2.987-3.801,2.053-5.057s-3.367-1.03-5.435,0.506
				s-2.053,5.057-2.053,5.057S90.507,173.162,92.575,171.625z"/>
			<path style="fill:#5CA28B;" d="M55.513,166.39c2.068-1.536,2.987-3.801,2.053-5.057c-0.934-1.257-3.367-1.03-5.435,0.506
				c-2.068,1.536-2.053,5.057-2.053,5.057S53.445,167.926,55.513,166.39z"/>
			<path style="fill:#5CA28B;" d="M64.194,140.245c2.545,0.4,4.805-0.53,5.048-2.077c0.243-1.547-1.623-3.125-4.168-3.525
				c-2.545-0.4-5.048,2.077-5.048,2.077S61.649,139.845,64.194,140.245z"/>
			<path style="fill:#5CA28B;" d="M58.788,150.697c2.545,0.4,4.805-0.53,5.048-2.077c0.243-1.547-1.623-3.125-4.168-3.525
				c-2.545-0.4-5.048,2.077-5.048,2.077S56.243,150.297,58.788,150.697z"/>
			<path style="fill:#5CA28B;" d="M67.038,169.943c1.367-2.184,1.398-4.627,0.071-5.458c-1.327-0.831-3.511,0.266-4.878,2.45
				c-1.367,2.184-0.071,5.458-0.071,5.458S65.671,172.126,67.038,169.943z"/>
			<path style="fill:#5CA28B;" d="M79.016,122.81c1.112,2.324,3.158,3.66,4.571,2.984c1.412-0.676,1.656-3.107,0.544-5.431
				c-1.112-2.324-4.571-2.984-4.571-2.984S77.904,120.487,79.016,122.81z"/>
			<path style="fill:#5CA28B;" d="M121.197,106.278c-1.138,2.311-0.923,4.745,0.482,5.437c1.405,0.692,3.466-0.62,4.604-2.931
				c1.138-2.311-0.482-5.437-0.482-5.437S122.335,103.967,121.197,106.278z"/>
			<path style="fill:#5CA28B;" d="M111.826,102.674c-1.138,2.311-0.923,4.745,0.482,5.437c1.405,0.692,3.466-0.62,4.604-2.931
				c1.138-2.311-0.482-5.437-0.482-5.437S112.965,100.363,111.826,102.674z"/>
			<path style="fill:#5CA28B;" d="M102.022,148.471c0.218-2.567,1.66-4.54,3.22-4.407c1.56,0.133,2.648,2.321,2.429,4.888
				c-0.218,2.567-3.22,4.407-3.22,4.407S101.804,151.038,102.022,148.471z"/>
			<path style="fill:#5CA28B;" d="M99.834,164.541c0.218-2.567,1.66-4.54,3.22-4.407c1.56,0.133,2.648,2.321,2.429,4.888
				c-0.218,2.567-3.22,4.407-3.22,4.407S99.615,167.107,99.834,164.541z"/>
			<path style="fill:#5CA28B;" d="M108.844,169.947c0.218-2.567,1.66-4.54,3.22-4.407c1.56,0.133,2.648,2.321,2.43,4.888
				c-0.218,2.567-3.22,4.407-3.22,4.407S108.625,172.513,108.844,169.947z"/>
			<path style="fill:#5CA28B;" d="M103.598,115.764c0.657,2.491-0.037,4.834-1.551,5.233s-3.274-1.296-3.931-3.787
				c-0.657-2.491,1.551-5.233,1.551-5.233S102.941,113.273,103.598,115.764z"/>
			<path style="fill:#5CA28B;" d="M96.39,103.15c0.657,2.491-0.037,4.834-1.551,5.233c-1.514,0.399-3.274-1.296-3.931-3.787
				c-0.657-2.491,1.551-5.233,1.551-5.233S95.733,100.659,96.39,103.15z"/>
			<path style="opacity:0.38;fill:#2B3448;" d="M114.125,134.359c-0.018,2.576-1.303,4.655-2.868,4.644
				c-1.566-0.011-2.82-2.109-2.802-4.684c0.018-2.576,2.868-4.644,2.868-4.644S114.143,131.783,114.125,134.359z"/>
			<path style="opacity:0.38;fill:#2B3448;" d="M130.009,144.976c-0.018,2.576-1.303,4.655-2.868,4.644
				c-1.566-0.011-2.82-2.108-2.802-4.684c0.018-2.576,2.868-4.644,2.868-4.644S130.027,142.4,130.009,144.976z"/>
			<path style="opacity:0.38;fill:#2B3448;" d="M145.805,158.509c1.421,2.149,1.514,4.591,0.207,5.454
				c-1.306,0.864-3.517-0.178-4.937-2.327c-1.421-2.149-0.207-5.454-0.207-5.454S144.384,156.36,145.805,158.509z"/>
			<path style="opacity:0.38;fill:#2B3448;" d="M178.962,159.23c1.421,2.149,1.514,4.591,0.207,5.454
				c-1.306,0.864-3.517-0.178-4.937-2.327c-1.421-2.149-0.207-5.454-0.207-5.454S177.541,157.081,178.962,159.23z"/>
			<path style="opacity:0.38;fill:#2B3448;" d="M140.508,168.742c-0.018,2.576-1.303,4.655-2.868,4.644
				c-1.566-0.011-2.82-2.108-2.802-4.684c0.018-2.576,2.868-4.644,2.868-4.644S140.527,166.166,140.508,168.742z"/>
			<path style="opacity:0.38;fill:#2B3448;" d="M111.268,120.829c-0.018,2.576-1.303,4.655-2.868,4.644
				c-1.566-0.011-2.82-2.108-2.802-4.684c0.018-2.576,2.868-4.644,2.868-4.644S111.286,118.253,111.268,120.829z"/>
			<path style="opacity:0.38;fill:#2B3448;" d="M108.384,103.53c-0.018,2.576-1.303,4.655-2.868,4.644
				c-1.566-0.011-2.82-2.108-2.802-4.684c0.018-2.576,2.868-4.644,2.868-4.644S108.403,100.954,108.384,103.53z"/>
			<path style="opacity:0.38;fill:#2B3448;" d="M118.07,115.422c-1.327,2.208-3.492,3.343-4.833,2.536
				c-1.342-0.807-1.354-3.251-0.026-5.458c1.327-2.208,4.833-2.536,4.833-2.536S119.398,113.215,118.07,115.422z"/>
			<path style="opacity:0.38;fill:#2B3448;" d="M134.021,116.844c-1.328,2.208-3.492,3.343-4.833,2.536s-1.354-3.251-0.026-5.458
				c1.327-2.208,4.833-2.536,4.833-2.536S135.348,114.637,134.021,116.844z"/>
			<path style="opacity:0.38;fill:#2B3448;" d="M147.356,140.991c-1.327,2.208-3.491,3.343-4.833,2.536s-1.354-3.251-0.026-5.458
				c1.327-2.208,4.833-2.536,4.833-2.536S148.683,138.784,147.356,140.991z"/>
			<path style="opacity:0.38;fill:#2B3448;" d="M109.747,146.945c-0.975-2.384-0.591-4.798,0.858-5.391
				c1.449-0.593,3.415,0.859,4.39,3.243c0.975,2.384-0.858,5.391-0.858,5.391S110.723,149.33,109.747,146.945z"/>
			<path style="opacity:0.38;fill:#2B3448;" d="M111.702,159.791c-0.975-2.384-0.591-4.798,0.858-5.39
				c1.449-0.593,3.415,0.859,4.39,3.243c0.975,2.384-0.858,5.39-0.858,5.39S112.677,162.175,111.702,159.791z"/>
			<path style="opacity:0.38;fill:#2B3448;" d="M120.712,169.161c-0.975-2.384-0.591-4.798,0.858-5.391
				c1.449-0.593,3.415,0.859,4.39,3.243c0.975,2.384-0.858,5.391-0.858,5.391S121.687,171.545,120.712,169.161z"/>
			<path style="opacity:0.38;fill:#2B3448;" d="M124.651,151.57c0.6,2.505-0.148,4.832-1.671,5.196
				c-1.523,0.365-3.244-1.371-3.844-3.876c-0.6-2.505,1.671-5.196,1.671-5.196S124.051,149.064,124.651,151.57z"/>
			<path style="opacity:0.38;fill:#2B3448;" d="M132.58,158.417c0.6,2.505-0.148,4.832-1.671,5.196
				c-1.523,0.365-3.244-1.37-3.844-3.876c-0.6-2.505,1.671-5.196,1.671-5.196S131.98,155.912,132.58,158.417z"/>
			<path style="opacity:0.38;fill:#2B3448;" d="M95.396,121.362c1.85,1.793,2.466,4.158,1.376,5.282
				c-1.09,1.124-3.473,0.583-5.323-1.21c-1.85-1.793-1.376-5.282-1.376-5.282S93.546,119.569,95.396,121.362z"/>
			<path style="opacity:0.38;fill:#2B3448;" d="M70.888,120.281c1.85,1.793,2.466,4.158,1.376,5.282
				c-1.09,1.124-3.473,0.583-5.323-1.21s-1.376-5.282-1.376-5.282S69.038,118.488,70.888,120.281z"/>
			<path style="opacity:0.38;fill:#2B3448;" d="M88.979,108.951c0.947,2.396,0.535,4.804-0.921,5.38
				c-1.456,0.576-3.404-0.899-4.352-3.295c-0.947-2.396,0.921-5.38,0.921-5.38S88.031,106.556,88.979,108.951z"/>
		</g>
	</g>
	<g>
		<g>
			<path style="fill:#5CA28B;" d="M74.955,406.432c-8.504-1.871-15.046-10.34-14.708-19.041c0.338-8.701,7.518-16.637,16.142-17.841
				c-10.763-4.956-17.36-17.643-15.235-29.3c2.125-11.657,12.774-21.2,24.594-22.039c0.828-14.292,19.207-22.815,32.377-17.2
				c13.17,5.614,20.148,20.851,20.168,35.168c8.196-5.977,19.755-6.956,28.84-2.444c9.085,4.512,15.289,14.315,15.479,24.457
				c9.438-7.568,24.323-5.389,33.152,2.881s12.217,21.103,11.597,33.184v12.709L74.955,406.432z"/>
		</g>
		<g style="opacity:0.28;">
			<path style="fill:#336149;" d="M89.439,386.203c-4.865-1.07-8.608-5.916-8.415-10.894c0.194-4.978,4.301-9.518,9.235-10.208
				c-6.158-2.835-9.932-10.094-8.716-16.763c1.216-6.669,7.309-12.129,14.071-12.609c0.474-8.177,10.989-13.053,18.523-9.841
				c7.535,3.212,11.527,11.929,11.539,20.12c4.689-3.419,11.302-3.98,16.5-1.398c5.197,2.581,8.747,8.19,8.855,13.992
				c5.4-4.33,13.916-3.083,18.967,1.648c5.051,4.731,6.99,12.073,6.635,18.985v7.271L89.439,386.203z"/>
		</g>
		<g>
			<path style="fill:#5CA28B;" d="M427.373,405.526c8.504-1.871,15.046-10.34,14.708-19.041
				c-0.338-8.701-7.518-16.637-16.142-17.842c10.763-4.956,17.36-17.643,15.235-29.3c-2.125-11.657-12.774-21.2-24.594-22.039
				c-0.828-14.292-19.207-22.815-32.377-17.2c-13.169,5.614-20.148,20.851-20.168,35.168c-8.196-5.977-19.755-6.956-28.84-2.444
				c-9.085,4.512-15.289,14.315-15.478,24.457c-9.438-7.568-24.323-5.389-33.152,2.881c-8.829,8.27-12.217,21.103-11.597,33.184
				v12.709L427.373,405.526z"/>
		</g>
		<g style="opacity:0.28;">
			<path style="fill:#336149;" d="M410.468,385.941c4.885-1.075,8.644-5.94,8.45-10.939c-0.194-4.998-4.319-9.558-9.273-10.25
				c6.183-2.847,9.973-10.136,8.752-16.833c-1.221-6.697-7.339-12.179-14.129-12.661c-0.475-8.211-11.035-13.107-18.6-9.882
				c-7.566,3.225-11.575,11.979-11.586,20.203c-4.708-3.434-11.349-3.996-16.568-1.404c-5.219,2.592-8.783,8.224-8.892,14.05
				c-5.422-4.348-13.973-3.096-19.046,1.655c-5.072,4.751-7.019,12.123-6.663,19.064v7.301L410.468,385.941z"/>
		</g>
	</g>
	<g>
		<g>
			<g>
				<path style="fill:#74471B;" d="M260.946,360.06c1.665,1.218,3.56-1.367,1.892-2.587
					C261.174,356.255,259.279,358.84,260.946,360.06L260.946,360.06z"/>
			</g>
			<g>
				<path style="fill:#74471B;" d="M269.365,361.487c0.171,0.125,0.342,0.25,0.514,0.376c0.677,0.495,1.76,0.374,2.24-0.347
					c0.481-0.724,0.378-1.709-0.347-2.24c-0.171-0.125-0.342-0.251-0.514-0.376c-0.677-0.495-1.76-0.374-2.24,0.347
					C268.537,359.971,268.64,360.957,269.365,361.487L269.365,361.487z"/>
			</g>
			<g>
				<path style="fill:#74471B;" d="M276.795,365.345c1.664,1.218,3.56-1.367,1.892-2.587
					C277.023,361.541,275.128,364.125,276.795,365.345L276.795,365.345z"/>
			</g>
			<g>
				<path style="fill:#74471B;" d="M265.969,354.271c1.665,1.218,3.56-1.367,1.892-2.587
					C266.197,350.467,264.302,353.052,265.969,354.271L265.969,354.271z"/>
			</g>
		</g>
		<g>
			<g>
				<path style="fill:#74471B;" d="M189.829,410.63c2.043,0.28,2.482-2.895,0.435-3.175
					C188.221,407.174,187.782,410.349,189.829,410.63L189.829,410.63z"/>
			</g>
			<g>
				<path style="fill:#74471B;" d="M197.914,407.883c0.21,0.029,0.42,0.058,0.631,0.086c0.83,0.114,1.726-0.507,1.805-1.37
					c0.079-0.865-0.48-1.683-1.37-1.805c-0.21-0.029-0.42-0.058-0.631-0.086c-0.831-0.114-1.726,0.508-1.805,1.37
					C196.465,406.943,197.024,407.761,197.914,407.883L197.914,407.883z"/>
			</g>
			<g>
				<path style="fill:#74471B;" d="M206.285,407.745c2.043,0.28,2.482-2.895,0.435-3.176
					C204.676,404.289,204.238,407.465,206.285,407.745L206.285,407.745z"/>
			</g>
			<g>
				<path style="fill:#74471B;" d="M191.496,403.149c2.043,0.28,2.482-2.895,0.435-3.176
					C189.888,399.694,189.45,402.869,191.496,403.149L191.496,403.149z"/>
			</g>
		</g>
		<g>
			<g>
				<g>
					<path style="fill:#74471B;" d="M297.257,435.704c2.062,0.051,2.144-3.153,0.079-3.204
						C295.274,432.449,295.192,435.653,297.257,435.704L297.257,435.704z"/>
				</g>
				<g>
					<path style="fill:#74471B;" d="M304.986,432.075c0.212,0.005,0.424,0.011,0.636,0.016c0.838,0.021,1.659-0.696,1.642-1.563
						c-0.017-0.869-0.664-1.62-1.563-1.642c-0.212-0.005-0.424-0.01-0.636-0.016c-0.838-0.021-1.659,0.697-1.642,1.563
						C303.441,431.302,304.088,432.052,304.986,432.075L304.986,432.075z"/>
				</g>
				<g>
					<path style="fill:#74471B;" d="M313.29,431.006c2.062,0.051,2.144-3.153,0.079-3.204
						C311.307,427.751,311.224,430.955,313.29,431.006L313.29,431.006z"/>
				</g>
				<g>
					<path style="fill:#74471B;" d="M298.082,428.084c2.062,0.051,2.144-3.153,0.079-3.204
						C296.099,424.829,296.016,428.033,298.082,428.084L298.082,428.084z"/>
				</g>
			</g>
			<g>
				<g>
					<path style="fill:#74471B;" d="M272.728,435.099c2.062,0.051,2.144-3.153,0.079-3.204
						C270.746,431.844,270.663,435.048,272.728,435.099L272.728,435.099z"/>
				</g>
				<g>
					<path style="fill:#74471B;" d="M280.458,431.469c0.212,0.005,0.424,0.01,0.636,0.016c0.838,0.021,1.659-0.696,1.642-1.563
						c-0.017-0.869-0.664-1.62-1.563-1.642c-0.212-0.005-0.424-0.01-0.636-0.016c-0.838-0.021-1.659,0.696-1.642,1.563
						C278.913,430.697,279.56,431.447,280.458,431.469L280.458,431.469z"/>
				</g>
				<g>
					<path style="fill:#74471B;" d="M288.761,430.401c2.062,0.051,2.144-3.153,0.079-3.204
						C286.778,427.146,286.696,430.35,288.761,430.401L288.761,430.401z"/>
				</g>
				<g>
					<path style="fill:#74471B;" d="M273.553,427.479c2.062,0.051,2.144-3.153,0.079-3.204
						C271.57,424.224,271.488,427.428,273.553,427.479L273.553,427.479z"/>
				</g>
			</g>
		</g>
		<path style="fill:#336149;" d="M230.562,387.555c7.041,1.851,12.282-6.632,12.282-6.632c-5.467-2.168-10.37,2.032-12.626,4.462
			c-3.112,2.095-5.13,5.29-6.433,8.345c-0.022-3.08-0.275-6.233-0.881-9.245c2.516-8.525-7.61-15.283-7.61-15.283
			c-3.233,7.388,3.334,14.268,5.853,16.545c0.97,5.601,0.729,11.716,0.166,16.751c-1.679-7.397-4.505-12.248-7.301-15.395
			c-1.672-8.809-13.884-10.072-13.884-10.072c0.577,7.93,9.348,10.98,12.747,11.869c2.23,2.635,4.464,6.483,6.01,12.038
			c-2.917-4.105-9.052-5.33-9.052-5.33c-0.148,7.305,8.603,10.363,10.236,10.87c0.118,0.744,0.231,1.498,0.325,2.29
			c-0.48,2.646-0.902,4.312-0.919,4.377l1.882,0.486c0.067-0.257,0.482-1.902,0.95-4.414l0.11-0.012
			c-0.013-0.118-0.03-0.228-0.043-0.345c0.331-1.818,0.68-4.057,0.95-6.543l0.128,0.012c0.001-0.01,0.011-0.099,0.028-0.237
			c7.764,0.852,11.155-9.174,11.155-9.174c-5.064-0.763-8.622,3.086-10.547,5.994C224.91,395.565,226.734,390.568,230.562,387.555z"
			/>
		<path style="fill:#74471B;" d="M313.146,411.062H207.025c-2.441,0-4.439,1.997-4.439,4.439v1.339c0,2.441,1.997,4.439,4.439,4.439
			h106.121c2.441,0,4.439-1.997,4.439-4.439v-1.339C317.585,413.059,315.587,411.062,313.146,411.062z"/>
		<g>
			<path style="fill:#74471B;" d="M302.247,400.905c-3.855-2.579-9.582-0.808-12.127,3.07c2.737-4.381,0.808-11.18-4.076-12.863
				c-4.379-1.51-9.622,2.389-9.66,6.797c-0.447-3.379-1.2-6.787-3.323-9.408c-2.525-3.117-6.888-4.62-10.796-3.717
				c-3.909,0.903-7.171,4.167-8.072,8.076c-0.352,1.526-0.359,3.042-0.109,4.528c-0.313,0.033-0.624,0.087-0.929,0.193
				c-3.368,1.161-4.698,5.849-2.811,8.87c-1.755-2.674-5.704-3.896-8.362-2.117c-2.658,1.779-2.651,6.564,0.265,7.877h21.733
				l0.111,0.118h37.771C306.091,410.424,306.102,403.484,302.247,400.905z"/>
		</g>
		<path style="fill:#336149;" d="M301.796,387.555c7.041,1.851,12.282-6.632,12.282-6.632c-5.467-2.168-10.37,2.032-12.626,4.462
			c-3.112,2.095-5.13,5.29-6.433,8.345c-0.022-3.08-0.275-6.233-0.881-9.245c2.516-8.525-7.61-15.283-7.61-15.283
			c-3.233,7.388,3.334,14.268,5.853,16.545c0.97,5.601,0.729,11.716,0.166,16.751c-1.679-7.397-4.505-12.248-7.301-15.395
			c-1.672-8.809-13.884-10.072-13.884-10.072c0.577,7.93,9.348,10.98,12.747,11.869c2.23,2.635,4.464,6.483,6.01,12.038
			c-2.917-4.105-9.052-5.33-9.052-5.33c-0.148,7.305,8.603,10.363,10.236,10.87c0.118,0.744,0.231,1.498,0.325,2.29
			c-0.48,2.646-0.902,4.312-0.919,4.377l1.882,0.486c0.067-0.257,0.482-1.902,0.95-4.414l0.11-0.012
			c-0.013-0.118-0.03-0.228-0.043-0.345c0.331-1.818,0.681-4.057,0.95-6.543l0.128,0.012c0.001-0.01,0.01-0.099,0.028-0.237
			c7.764,0.852,11.155-9.174,11.155-9.174c-5.064-0.763-8.622,3.086-10.547,5.994C296.144,395.565,297.967,390.568,301.796,387.555z
			"/>
	</g>
	<g>
		<ellipse style="opacity:0.28;fill:#2B3448;" cx="146.811" cy="418.593" rx="43.811" ry="7.538"/>
		<g>
			<path style="fill:#E7B68C;" d="M216.509,276.086l-0.255-8.951c-0.017-0.336-0.027-0.671-0.047-1.007
				c-0.015-0.245-0.013-0.48-0.002-0.706l-0.36-12.657c0,0-0.5-4.636-1.995-6.368c-2.565-2.97-7.051-3.298-10.021-0.733
				c-1.969,1.7-2.769,4.245-2.342,6.632c-0.012,0.06-0.029,0.112-0.04,0.174c0,0,0.859,28.018,3.369,31.743
				c0.229,0.34,1.235,1.722,1.584,2.126c2.242,2.596,6.163,2.883,8.759,0.641c0.613-0.529,1.083-1.156,1.435-1.833
				C216.552,282.127,216.542,279.106,216.509,276.086z"/>
			<path style="fill:#E7B68C;" d="M208.699,280.557c0,0-11.003,4.982-2.502,26.304l6.093,16.224h5.838l-1.472-38.77
				C216.656,284.315,213.562,278.091,208.699,280.557z"/>
			<path style="fill:#2B3448;" d="M135.043,284.34c0,0-7.214,9.178-9.465,13.83c0,0,17.433,12.348,19.311,15.83l12.369,4.304
				c0,0,9.77-5.665,18.874-4.228l2.855-10.397L135.043,284.34z"/>
			<path style="fill:#2B3448;" d="M153.772,316.185c0,0,12.378,34.992,14.794,41.556c2.416,6.564,12.918-1.566,13.845-6.957
				c0.927-5.392-7.361-39.396-6.528-42.754C176.716,304.672,152.973,311.393,153.772,316.185z"/>
			<path style="fill:#2B3448;" d="M126.317,296.845c0,0-21.111,45.56-16.261,50.877c4.85,5.317,13.147,5.449,14.581,3.816
				c1.433-1.632,24.797-40.387,24.797-40.387S129.617,291.563,126.317,296.845z"/>
			<path style="fill:#2B3448;" d="M109.797,344.993c0,0-4.409,8.288,8.89,56.108l9.277,0.426c0,0,1.113-51.233-4.545-56.248
				C117.761,340.265,109.025,341.562,109.797,344.993z"/>
			<path style="fill:#2B3448;" d="M182.678,349.019c0,0,3.728,8.616-13.373,55.211l-9.281-0.322c0,0,3.011-51.157,9.054-55.7
				C175.12,343.665,183.724,345.66,182.678,349.019z"/>
			<path style="fill:#E7B68C;" d="M233.634,207.275c-7.05-3.024-15.207,0.212-18.282,7.225c-1.631-0.083-3.629,1.334-4.884,3.624
				c-1.154,2.106-1.347,4.345-0.633,5.726c-1.951,1.609-3.442,2.878-3.675,3.185c-0.758,0.997,1.233,9.45,7.731,13.559
				c5.743,3.632,18.552-6.215,21.453-8.553c2.415-1.456,4.42-3.644,5.616-6.434C243.998,218.521,240.718,210.314,233.634,207.275z"
				/>
			<path style="fill:#E7B68C;" d="M210.821,224.894c0,0-0.105,0.037-0.296,0.103c-1.736,0.604-10.582,3.665-12.774,4.042
				c-2.434,0.419-1.17,10.794,5.621,14.259l10.248-6.397L210.821,224.894z"/>
			<path style="fill:#FFFFFF;" d="M197.577,227.652c0,0-12.368-7.066-14.283-7.273c-1.915-0.208-14.309,14.556-15.733,18.76
				c-1.424,4.204-29.609,24.394-38.114,44.781c0,0,29.362,24.006,48.987,26.132c0,0,1.4-12.924,4.843-17.878
				c3.443-4.954,28.922-44.128,29.608-45.991c0.686-1.863-4.122-5.972-4.122-5.972L197.577,227.652z"/>
			<path style="fill:#E7B68C;" d="M180.438,233.087c3.386-2.676,3.961-7.59,1.285-10.976c-1.774-2.245-4.531-3.246-7.175-2.891
				c-0.066-0.016-0.122-0.037-0.189-0.052c0,0-30.826-0.397-35.04,2.183c-0.384,0.235-1.951,1.275-2.412,1.639
				c-2.959,2.339-3.462,6.634-1.123,9.593c2.003,2.534,5.438,3.26,8.242,1.95l29.32,0.442
				C173.346,234.975,178.463,234.648,180.438,233.087z"/>
			<path style="fill:#E7B68C;" d="M233.373,232.456l-3.095,7.383c0,0-2.502-1.94-2.758-3.428
				C227.265,234.923,233.373,232.456,233.373,232.456z"/>
			<path style="fill:#74471B;" d="M221.221,216.725c0,0,0.696,3.205-1.679,5.868c-2.375,2.663-3.334,3.811-3.334,3.811l1.538,1.21
				c0,0,5.758-5.009,7.286-7.555c0,0,6.576,0.921,10.555-1.151c0,0,3.086,6.176,8.586,7.397c5.5,1.222-0.83-1.967-0.83-1.967
				s7.607,1.033,8.171-2.244c0,0-1.923,0.417-3.299-0.357c-1.376-0.775-0.493-12.779-15.299-16.678l1.962-2.708l-2.971,2.39
				l-1.911-3.545l-0.151,3.322c0,0-6.353-2.983-11.832,3.308c0,0-2.029,3.326-4.069,2.897s-9.447,4.4-6.239,13.301l0.44,1.717
				l3.389-0.467l2.814-0.947c0,0,0.62-7.652,4.009-8.119C221.745,215.738,221.221,216.725,221.221,216.725z"/>
			<path style="fill:#FFFFFF;" d="M188.473,226.175c0,0-2.809-12.382-27.441-7.919l5.521,22.527
				C166.553,240.783,190.3,241.022,188.473,226.175z"/>
			<path style="fill:#FFFFFF;" d="M211.711,244.097c0,0,8.994,6.294,5.316,23.532l-15.791,2.408l-1.042-8.407
				C200.194,261.63,207.944,241.778,211.711,244.097z"/>
			<path style="fill:#E7B68C;" d="M197.75,229.039c0,0-1.573,13.311-0.289,17.822l11.359-6.594
				C208.82,240.268,202.72,228.193,197.75,229.039z"/>
			<g style="opacity:0.39;">
				
					<rect x="199.378" y="262.037" transform="matrix(0.3612 -0.9325 0.9325 0.3612 -115.5405 356.4466)" style="fill:#365993;" width="6.007" height="1.026"/>
			</g>
			<g style="opacity:0.39;">
				<path style="fill:#365993;" d="M196.285,249.643l-0.213-0.573c-1.805-4.854-0.625-20.197-0.574-20.848l1.023,0.081
					c-0.012,0.151-1.122,14.578,0.324,19.821l11.831-6.967l0.521,0.884L196.285,249.643z"/>
			</g>
			<g style="opacity:0.39;">
				<path style="fill:#365993;" d="M178.785,308.417c-15.876-3.322-47.3-25.106-48.63-26.032l0.586-0.843
					c0.324,0.226,32.583,22.592,48.254,25.87L178.785,308.417z"/>
			</g>
			<path style="opacity:0.29;fill:#365993;" d="M179.915,230.847c-0.771,4.041-5.928,6.304-9.553,7.412l-5.104-18.189l-0.987,0.277
				l5.106,18.197c-1.516,0.413-2.587,0.594-2.623,0.6l0.163,1.013c0.517-0.083,12.67-2.122,14.005-9.118L179.915,230.847z"/>
			<g style="opacity:0.39;">
				
					<rect x="200.884" y="266.511" transform="matrix(0.99 -0.1414 0.1414 0.99 -35.6424 32.2767)" style="fill:#365993;" width="16.979" height="1.025"/>
			</g>
			<path style="opacity:0.32;fill:#DE6C6B;" d="M215.784,241.483c0,0-4.074-1.557-4.789-2.644l-3.245,1.884l-10.288,6.139
				l-0.376-6.541c0,0,11.912-2.91,13.032-4.143c1.119-1.234-0.1-6.784,2.886-8.685C213.003,227.493,208.738,237.395,215.784,241.483
				z"/>
			<path style="opacity:0.32;fill:#DE6C6B;" d="M218.822,221.944c-1.154,1.223-2.53,1.799-3.074,1.286
				c-0.544-0.513-0.049-1.92,1.105-3.144c1.154-1.223,2.53-1.799,3.074-1.286C220.471,219.313,219.976,220.72,218.822,221.944z"/>
			<path style="fill:#2B3448;" d="M232.862,230.844c-0.54,0.477-1.215,0.594-1.509,0.262c-0.293-0.332-0.093-0.988,0.446-1.465
				c0.54-0.477,1.215-0.594,1.509-0.262C233.602,229.712,233.402,230.368,232.862,230.844z"/>
			<path style="fill:none;stroke:#2B3448;stroke-miterlimit:10;" d="M223.226,234.221c0,0-1.742,2.98,1.093,5.34"/>
			<path style="fill:#74471B;" d="M232.636,225.337c0,0,3.68,2.239,3.781,3.853c0,0,1.602,0.1,1.652-0.702
				C238.119,227.688,234.701,224.46,232.636,225.337z"/>
			<path style="opacity:0.59;fill:#DE6C6B;" d="M204.815,284.212c0.976-0.348,1.933-0.382,2.885-0.344
				c0.951,0.071,1.897,0.218,2.825,0.68c-0.976,0.35-1.933,0.385-2.885,0.344C206.69,284.819,205.743,284.672,204.815,284.212z"/>
			<g>
				<path style="fill:#FFFFFF;" d="M118.687,401.101c0,0-8.291,13.204-6.736,16.333c1.554,3.128,7.207,5.765,10.273,5.566
					c3.066-0.199,8.998-3.663,9.384-4.664c0.386-1.001-3.643-16.809-3.643-16.809L118.687,401.101z"/>
				<path style="fill:#FFFFFF;" d="M160.023,403.908c0,0-2.829,8.389-1.181,9.804c1.648,1.415,25.009,3.243,28.096,2.331
					c3.087-0.912,0.574-6.77-4.524-6.607c-5.098,0.163-13.11-5.207-13.11-5.207L160.023,403.908z"/>
				<g>
					<path style="fill:#2B3448;" d="M119.257,411.011c-3.997,0.661-7.045,2.445-7.173,2.521l0.523,0.884
						c0.056-0.034,2.767-1.601,6.329-2.282c-0.453,1.938-1.824,8.096-1.368,9.923l0.996-0.248c-0.378-1.511,0.91-7.528,1.469-9.851
						c1.359-0.175,2.806-0.194,4.256,0.053c0.209,2.689,0.575,9.235,0.013,10.736l0.96,0.361c0.684-1.827,0.231-8.755,0.073-10.871
						c2.139,0.568,4.237,1.784,6.007,4.043l0.807-0.633C129.077,411.728,124.617,410.123,119.257,411.011z"/>
					<path style="fill:#2B3448;" d="M180.609,408.997l-0.333-0.075l-0.198,0.276c-0.108,0.151-2.633,3.747-1.305,7.198l0.958-0.369
						c-0.392-1.021-0.361-2.075-0.165-3.027c0.6,0.052,4.203,0.465,4.399,3.002l1.022-0.078c-0.243-3.164-4.021-3.807-5.147-3.928
						c0.293-0.851,0.665-1.546,0.888-1.911c1.437,0.392,6.857,2.105,6.473,5.574l1.02,0.112
						C188.759,410.894,180.941,409.072,180.609,408.997z"/>
				</g>
				<line style="fill:none;stroke:#2B3448;stroke-miterlimit:10;" x1="171.541" y1="407.755" x2="173.531" y2="406.761"/>
				<line style="fill:none;stroke:#2B3448;stroke-miterlimit:10;" x1="174.028" y1="409.745" x2="176.018" y2="408.004"/>
				<line style="fill:none;stroke:#2B3448;stroke-miterlimit:10;" x1="119.559" y1="405.02" x2="126.025" y2="405.766"/>
				<line style="fill:none;stroke:#2B3448;stroke-miterlimit:10;" x1="120.553" y1="407.507" x2="124.533" y2="408.253"/>
			</g>
			<path style="fill:#E7B68C;" d="M136.591,223.482c0,0-10.16,5.416-0.746,25.188l7.323,16.499l5.823,0.13l-1.145-35.266
				C147.846,230.033,141.064,220.837,136.591,223.482z"/>
			<path style="opacity:0.59;fill:#DE6C6B;" d="M141.269,231.257c0.65-0.129,1.299-0.113,1.938-0.034
				c0.642,0.072,1.268,0.247,1.881,0.477c0.604,0.244,1.199,0.565,1.698,1.028c0.496,0.445,0.925,1.061,0.962,1.735
				c-0.438-0.498-0.923-0.804-1.432-1.087c-0.512-0.272-1.047-0.516-1.607-0.723C143.601,232.199,142.446,231.829,141.269,231.257z"
				/>
			<path style="fill:#DC903C;" d="M150.367,269.224c0,0,1.314,5.004-0.035,7.271l-3.267,0.322L150.367,269.224z"/>
			<path style="fill:#E7B68C;" d="M211.932,324.281l-0.329-3.456l6.419,0.165c0,0,1.152,5.925,0.988,8.558L211.932,324.281z"/>
			<path style="fill:#2B3448;" d="M246.357,348.612l-1.454-0.654l-115.555-90.186c-0.907-0.705-2.226-0.54-2.931,0.366l-0.411,0.529
				c-0.705,0.907-0.54,2.226,0.367,2.931l115.673,90.278c0.469,0.365,1.049,0.492,1.597,0.409
				c-0.581,4.611-0.154,11.799,6.571,16.557c10.583,7.488,35.406,8.836,35.406,8.836l0.852-3.91
				C286.471,373.768,251.975,366.58,246.357,348.612z"/>
			<g>
				<path style="fill:#E7B68C;" d="M148.982,262.509c0,0,1.977,6.319,1.319,8.888c-0.481,1.878-1.449,5.466-2.956,7.149
					c-0.554,0.619-2.093,1.449-3.036,0.977c-0.6-0.3-0.96-1.08-0.66-2.099c0,0-1.968,1.237-2.541-0.429
					c-0.573-1.666,0.12-1.967,0.12-1.967s-1.157,1.1-2.091,0.149c-0.934-0.951-0.015-2.453-0.015-2.453s-1.198,1.472-2.453,0.015
					c-1.256-1.457,1.711-3.585,2.311-3.897c0.6-0.312,3.249-4.5,3.92-5.464C143.572,262.414,147.364,260.918,148.982,262.509z"/>
				<path style="opacity:0.47;fill:#DE6C6B;" d="M139.124,272.724c0.158-0.433,0.424-0.757,0.715-1.054
					c0.304-0.284,0.634-0.541,1.072-0.687c-0.158,0.434-0.423,0.757-0.715,1.054C139.891,272.319,139.561,272.576,139.124,272.724z"
					/>
				<path style="opacity:0.47;fill:#DE6C6B;" d="M141.481,275.081c0.158-0.433,0.424-0.757,0.715-1.054
					c0.304-0.284,0.634-0.541,1.073-0.687c-0.158,0.434-0.423,0.758-0.715,1.054C142.248,274.676,141.918,274.933,141.481,275.081z"
					/>
				<path style="opacity:0.47;fill:#DE6C6B;" d="M143.668,277.493c0.159-0.433,0.424-0.757,0.715-1.054
					c0.304-0.284,0.634-0.541,1.072-0.687c-0.158,0.434-0.423,0.757-0.715,1.054C144.436,277.089,144.106,277.346,143.668,277.493z"
					/>
				<path style="opacity:0.4;fill:#DE6C6B;" d="M141.722,269.26c1.047,0.744,1.983,1.606,2.885,2.5
					c0.444,0.455,0.884,0.913,1.293,1.403c0.411,0.486,0.816,0.982,1.154,1.53c-0.99-0.815-1.914-1.675-2.811-2.572
					C143.358,271.215,142.49,270.29,141.722,269.26z"/>
			</g>
			<path style="fill:#E7B68C;" d="M211.054,325.359c-0.599,0.332-1.804,3.681-0.65,4.98c1.155,1.299,2.31-2.526,2.021-3.681
				S211.704,324.999,211.054,325.359z"/>
			<path style="fill:#E7B68C;" d="M217.55,329.906c-0.598,0.333-1.804,3.681-0.65,4.98c1.155,1.299,2.31-2.526,2.021-3.681
				C218.633,330.051,218.2,329.546,217.55,329.906z"/>
			<path style="fill:#E7B68C;" d="M213.019,326.36c-0.702,0.39-2.118,4.321-0.762,5.846c1.355,1.525,2.711-2.965,2.372-4.321
				C214.29,326.53,213.782,325.937,213.019,326.36z"/>
			<path style="fill:#E7B68C;" d="M215.329,328.092c-0.703,0.39-2.118,4.321-0.762,5.846c1.355,1.525,2.711-2.965,2.372-4.321
				C216.6,328.262,216.091,327.669,215.329,328.092z"/>
			<path style="fill:#E7B68C;" d="M217.528,321.977c0,0,4.633,2.87,4.126,5.028c-0.508,2.158-2.602,3.236-4.696,2.221
				c-2.094-1.015-2.158-2.157-1.523-2.348c0.635-0.19,3.173-0.064,3.363,0.317c0,0-3.478-2.095-2.907-2.856
				S217.528,321.977,217.528,321.977z"/>
		</g>
	</g>
	<g>
		<ellipse style="opacity:0.28;fill:#2B3448;" cx="357" cy="411.13" rx="40" ry="7"/>
		<g>
			<path style="fill:#ECB751;" d="M339.912,197.733c0,0-15.501-10.214-7.46-11.108c8.041-0.894,55.992,5.361,57.779,12.509
				c1.787,7.148-14.892,5.957-14.892,5.957S347.67,199.608,339.912,197.733z"/>
			<path style="fill:#365993;" d="M335.282,277.897c0,0-6.773,17.129-0.877,55.582c0,0,3.868,11.733,15.686,4.111l5.64-50.215
				C355.731,287.374,342.953,270.932,335.282,277.897z"/>
			<path style="fill:#365993;" d="M343.104,269.028c0,0-8.693,4.773-9.915,17.481c0,0,17.725,5.873,20.657,10.517
				c0,0,16.139-4.292,22.005-3.803c0,0,1.955-10.264-10.753-23.705L343.104,269.028z"/>
			<path style="fill:#E7B68C;" d="M339.761,230.171c0,0-23.482,21.838-23.886,28.407c-0.404,6.569,3.584,4.472,6.009,4.883
				c2.426,0.411,22.854-18.249,22.854-18.249S348.49,233.867,339.761,230.171z"/>
			<path style="fill:#2B3448;" d="M352.307,178.953c0,0,15.775-6.009,22.535,11.268c0,0,1.127,9.014,6.385,10.516
				c5.258,1.502,11.643,12.019,5.258,18.028c-6.385,6.009-0.376,12.395,4.131,12.395c4.507,0,6.761,17.653-8.263,16.15
				C367.33,245.808,341.039,203.367,352.307,178.953z"/>
			<path style="fill:#E7B68C;" d="M372.865,229.045c0,0,23.482,21.838,23.886,28.407c0.404,6.569-3.583,4.472-6.009,4.883
				c-2.426,0.411-22.854-18.249-22.854-18.249S364.135,232.741,372.865,229.045z"/>
			<path style="fill:#2B3448;" d="M342.541,186.465c0,0,0.376,8.263-2.629,11.268s-16.526,23.287,1.878,31.549
				C360.194,237.545,365.077,202.616,342.541,186.465z"/>
			<path style="fill:#FFFFFF;" d="M367.33,225.527c0,0-12.984-0.732-13.473,1.223l-0.753,0.185c0,0-6.907,1.305-10.694,2.271
				c-0.019,1.786-0.047,3.573-0.09,5.359c0.436,4.151-0.219,10.591-0.927,16.568c-0.258,2.778-0.576,5.55-0.972,8.314
				c-0.049,0.479-5.952,18.101-5.99,18.541l39.83,3.549c0,0-1.972-35.492,5.915-48.901L367.33,225.527z"/>
			<path style="opacity:0.12;fill:#365993;" d="M374.16,264.719c-0.994,1.048-2.114,2.025-3.397,2.91
				c-9.044,6.235-23.465,7.293-33.854,2.663c-1.297,3.946-2.461,7.501-2.478,7.695l39.83,3.549
				C374.261,281.536,373.85,274.081,374.16,264.719z"/>
			<path style="fill:#E7B68C;" d="M334.405,332.295c0,0,3.835,42.475,8.934,66.258l7.465,0.439l-0.27-65.582
				C350.534,333.41,335.658,326.688,334.405,332.295z"/>
			<path style="fill:#365993;" d="M354.954,285.624c0,0-5.374,17.618,3.592,55.472c0,0,4.798,11.385,15.966,2.837l1.587-50.505
				C376.099,293.428,362.041,278.065,354.954,285.624z"/>
			<path style="fill:#E7B68C;" d="M318.074,263.859c0,0-9.21-2.716-7.481-28.339l5.273,0.402l7.664,24.017
				C323.53,259.939,323.244,266.049,318.074,263.859z"/>
			<path style="fill:#FFFFFF;" d="M342.583,229.105l-8.146,2.886c0,0,3.781,17.046,5.731,19.907
				C342.119,254.759,347.811,233.085,342.583,229.105z"/>
			<path style="fill:#E7B68C;" d="M396.092,261.948c0,0-2.538,11.295-33.802,11.053l-0.605-5.946l29.194-11.402
				C390.879,255.653,398.324,255.559,396.092,261.948z"/>
			<path style="fill:#FFFFFF;" d="M378.017,231.367l6.947,3.944c0,0-7.267,15.876-9.774,18.265
				C372.684,255.964,372.072,234.163,378.017,231.367z"/>
			<path style="fill:#365993;" d="M334.654,330.692c0,0-0.138,44.52,2.254,54.085c0.376,1.502,4.883,6.761,16.15,3.005
				c0,0,0.376-42.066-1.878-57.465C348.926,314.917,333.527,326.56,334.654,330.692z"/>
			<path style="fill:#E7B68C;" d="M358.186,343.036c0,0,5.187,42.102,11.021,65.715l7.438,0.441l-2.303-65.542
				C374.342,343.651,359.265,337.393,358.186,343.036z"/>
			<path style="fill:#365993;" d="M358.348,340.243c0,0,1.242,44.503,3.929,53.989c0.422,1.49,5.09,6.606,16.236,2.503
				c0,0-0.928-42.057-3.658-57.379C372.125,324.033,357.094,336.148,358.348,340.243z"/>
			<polygon style="fill:#365993;" points="339.161,386.598 339.537,391.481 351.931,391.481 351.555,387.725 			"/>
			<polygon style="fill:#365993;" points="365.077,396.044 365.452,400.927 377.847,400.927 377.471,397.171 			"/>
			<path style="fill:#2B3448;" d="M356.814,186.841c0,0-10.902-3.629-14.283,6.512c0,0-2.243-11.019,4.517-13.648
				C353.809,177.076,356.438,183.836,356.814,186.841z"/>
			<path style="fill:#E7B68C;" d="M368.879,211.864c0,0-1.549,9.859-1.549,13.662c0,0-2.394,4.93-14.226,1.408l1.268-12.958
				C354.372,213.977,367.471,209.047,368.879,211.864z"/>
			<path style="opacity:0.32;fill:#DE6C6B;" d="M361.25,220.247c0.539-2.86,0.776-5.761,1.018-8.665
				c-3.841,0.869-7.896,2.394-7.896,2.394l-1.268,12.958c0.223,0.066,0.42,0.11,0.636,0.17
				C357.987,226.827,360.305,225.268,361.25,220.247z"/>
			<path style="fill:#E7B68C;" d="M370.315,195.903c0-7.704-6.245-13.949-13.949-13.949c-7.704,0-13.949,6.245-13.949,13.949
				c0,0.062,0.009,0.121,0.009,0.183c-0.365,4.745-1.05,21.413,7.156,23.102c9.578,1.972,15.493-1.831,16.057-2.958
				c0.505-1.009,2.365-11.171,2.747-13.276C369.604,200.884,370.315,198.479,370.315,195.903z"/>
			<path style="fill:#E7B68C;" d="M372.234,206.964c-0.87,3.243-2.833,5.534-4.384,5.118c-1.551-0.416-2.104-3.382-1.234-6.625
				c0.87-3.243,2.833-5.534,4.384-5.118C372.551,200.755,373.104,203.721,372.234,206.964z"/>
			<path style="opacity:0.32;fill:#DE6C6B;" d="M370.803,206.58c-0.427,1.591-1.39,2.715-2.151,2.511
				c-0.761-0.204-1.032-1.66-0.605-3.251c0.427-1.591,1.39-2.715,2.151-2.511C370.959,203.534,371.23,204.989,370.803,206.58z"/>
			<path style="fill:#2B3448;" d="M356.814,186.841c0,0,2.629,4.883,6.761,6.385c4.132,1.502,3.005,4.507,2.629,5.634
				c-0.376,1.127-5.258,8.639-0.751,13.897c0,0,0.414-13.062,5.653-11.602l2.61,1.461c0,0,1.878-9.014-3.005-15.024
				c-4.883-6.009-11.719-10.371-20.733-8.117C349.978,179.475,354.56,185.339,356.814,186.841z"/>
			<path style="opacity:0.47;fill:#365993;" d="M337.191,231.452c1.118,3.469,1.932,7,2.671,10.545
				c0.709,3.552,1.341,7.12,1.667,10.75c-1.12-3.468-1.934-6.999-2.671-10.545C338.151,238.65,337.519,235.082,337.191,231.452z"/>
			<path style="opacity:0.47;fill:#375A94;" d="M350.208,227.874c1.587,0.764,3.24,1.309,4.906,1.719
				c1.672,0.388,3.378,0.586,5.073,0.53c1.694-0.028,3.389-0.301,5.008-0.847c1.648-0.484,3.176-1.297,4.733-2.134
				c-0.331,0.288-0.67,0.571-1.018,0.845c-0.35,0.27-0.679,0.581-1.068,0.796c-0.763,0.455-1.523,0.942-2.371,1.245
				c-0.814,0.397-1.699,0.582-2.57,0.823c-0.889,0.139-1.785,0.306-2.689,0.297C356.601,231.238,352.984,230.059,350.208,227.874z"
				/>
			<path style="opacity:0.47;fill:#375A94;" d="M382.543,234.213c-1.15,3.291-2.49,6.475-3.802,9.668l-1.952,4.787
				c-0.597,1.613-1.268,3.198-1.598,4.907c-0.069-1.755,0.363-3.497,0.841-5.167c0.495-1.675,1.111-3.306,1.762-4.919
				C379.146,240.285,380.665,237.154,382.543,234.213z"/>
			<path style="fill:none;stroke:#2B3448;stroke-miterlimit:10;" d="M334.825,280.747c0,0,33.915,3.549,39.436,3.155"/>
			<path style="fill:none;stroke:#2B3448;stroke-miterlimit:10;" d="M345.867,304.409c0,0,10.253,2.366,14.197,2.366"/>
			<polyline style="fill:none;stroke:#2B3448;stroke-miterlimit:10;" points="351.783,282.719 352.177,298.099 354.938,298.493 			
				"/>
			<line style="fill:none;stroke:#2B3448;stroke-miterlimit:10;" x1="339.161" y1="386.598" x2="351.555" y2="387.725"/>
			<line style="fill:none;stroke:#2B3448;stroke-miterlimit:10;" x1="365.077" y1="396.044" x2="378.513" y2="396.735"/>
			<path style="fill:none;stroke:#2B3448;stroke-miterlimit:10;" d="M369.923,284.691c0,0,0.789,53.238,0.789,57.182
				s2.76,53.633,2.76,53.633"/>
			<path style="fill:none;stroke:#2B3448;stroke-miterlimit:10;" d="M348.628,305.197c0,0-4.732,68.224-1.183,81.632"/>
			<path style="fill:#ECB751;" d="M336.939,188.266c-0.259,1.167,27.895,0.797,41.842,6.376c0,0,0.398-15.541-16.338-18.331
				C362.443,176.311,340.924,170.334,336.939,188.266z"/>
			<path style="opacity:0.16;fill:#365993;" d="M342.31,189.326l-0.535,4.637c0,0,25.146,0.892,34.598,2.318l-0.535-2.675
				C375.838,193.606,351.405,187.364,342.31,189.326z"/>
			<g style="opacity:0.16;">
				<path style="fill:#365993;" d="M344.404,234.478c0,0.832-0.674,1.506-1.506,1.506c-0.832,0-1.506-0.674-1.506-1.506
					c0-0.831,0.674-1.506,1.506-1.506C343.73,232.972,344.404,233.646,344.404,234.478z"/>
				<circle style="fill:#365993;" cx="357.907" cy="241.633" r="1.506"/>
				<path style="fill:#365993;" d="M356.572,259.885c0,0.832-0.674,1.506-1.506,1.506c-0.832,0-1.506-0.674-1.506-1.506
					c0-0.832,0.674-1.506,1.506-1.506C355.898,258.379,356.572,259.054,356.572,259.885z"/>
				<path style="fill:#365993;" d="M354.4,274.458c0,0.832-0.674,1.506-1.506,1.506c-0.832,0-1.506-0.674-1.506-1.506
					s0.674-1.506,1.506-1.506C353.725,272.953,354.4,273.627,354.4,274.458z"/>
				<circle style="fill:#365993;" cx="372.682" cy="234.245" r="1.506"/>
				<path style="fill:#365993;" d="M348.316,250.325c0,0.832-0.674,1.506-1.506,1.506c-0.832,0-1.506-0.674-1.506-1.506
					s0.674-1.506,1.506-1.506C347.641,248.819,348.316,249.493,348.316,250.325z"/>
				<path style="fill:#365993;" d="M369.61,252.497c0,0.832-0.674,1.506-1.506,1.506s-1.506-0.674-1.506-1.506
					c0-0.832,0.674-1.506,1.506-1.506S369.61,251.666,369.61,252.497z"/>
			</g>
			<g>
				<polygon style="fill:#74471B;" points="343.696,257.937 347.289,274.692 360.375,275.455 362.813,258.511 				"/>
				<path style="opacity:0.28;fill:#2B3448;" d="M362.396,261.407l0.417-2.895l-19.118-0.574l0.632,2.947
					C350.345,260.447,356.496,260.336,362.396,261.407z"/>
				<g>
					
						<rect x="352.862" y="251.995" transform="matrix(0.0359 -0.9994 0.9994 0.0359 80.1132 604.5228)" style="fill:#2B3448;" width="1.026" height="17.489"/>
				</g>
				<path style="fill:#336149;" d="M358.884,243.161c4.173,1.053,7.221-3.991,7.221-3.991c-3.244-1.25-6.118,1.261-7.438,2.71
					c-1.828,1.256-3.002,3.157-3.754,4.97c-0.031-1.82-0.198-3.683-0.574-5.459c1.438-5.053-4.586-8.99-4.586-8.99
					c-1.868,4.385,2.053,8.415,3.555,9.746c0.606,3.305,0.498,6.921,0.195,9.9c-1.035-4.363-2.733-7.214-4.404-9.058
					c-1.039-5.198-8.265-5.874-8.265-5.874c0.387,4.684,5.589,6.436,7.603,6.942c1.333,1.545,2.676,3.806,3.622,7.081
					c-1.748-2.41-5.381-3.098-5.381-3.098c-0.045,4.319,5.145,6.076,6.113,6.366c0.074,0.439,0.145,0.884,0.205,1.352
					c-0.269,1.567-0.508,2.554-0.518,2.592l1.115,0.276c0.038-0.152,0.274-1.127,0.536-2.615l0.065-0.008
					c-0.008-0.07-0.019-0.134-0.027-0.203c0.185-1.077,0.379-2.402,0.524-3.873l0.076,0.006c0-0.006,0.006-0.058,0.015-0.14
					c4.594,0.459,6.541-5.487,6.541-5.487c-2.998-0.422-5.078,1.873-6.199,3.604C355.589,247.928,356.638,244.964,358.884,243.161z"
					/>
			</g>
			<path style="fill:#2B3448;" d="M343.562,201.562c-0.034-0.932,0.402-1.704,0.975-1.725c0.573-0.021,1.066,0.717,1.101,1.648
				c0.034,0.931-0.402,1.704-0.975,1.725C344.089,203.232,343.596,202.494,343.562,201.562z"/>
			<path style="fill:#2B3448;" d="M353.209,202.105c0.172-0.916,0.769-1.573,1.333-1.467c0.564,0.106,0.881,0.935,0.709,1.851
				c-0.172,0.916-0.769,1.573-1.333,1.467C353.354,203.85,353.036,203.021,353.209,202.105z"/>
			<path style="opacity:0.53;fill:#DE6C6B;" d="M383.661,257.978c1.017-0.354,2.017-0.395,3.014-0.363
				c0.996,0.065,1.987,0.205,2.963,0.661c-1.017,0.356-2.017,0.397-3.014,0.363C385.629,258.573,384.637,258.432,383.661,257.978z"
				/>
			<path style="fill:#DE6C6B;" d="M347.638,202.428c-0.291,2.102-0.96,4.071-1.752,5.998l-0.249-0.422
				c0.783,0.187,1.558,0.421,2.322,0.72c-0.82,0.029-1.628-0.006-2.429-0.088l-0.36-0.037l0.111-0.385
				C345.858,206.214,346.559,204.255,347.638,202.428z"/>
			<g>
				<path style="fill:#DE6C6B;" d="M345.819,211.221c0,0,1.359-1.673,5.923,0.86C351.742,212.082,346.475,216.987,345.819,211.221z"
					/>
				<path style="fill:#FFFFFF;" d="M346.262,211.696l0.409,1.009c0,0,2.768,0.64,3.954-0.689L346.262,211.696z"/>
			</g>
			<path style="opacity:0.44;fill:#DE6C6B;" d="M345.096,204.184c0,0.208-0.413,0.377-0.921,0.377c-0.509,0-0.921-0.169-0.921-0.377
				c0-0.208,0.413-0.377,0.921-0.377C344.684,203.807,345.096,203.976,345.096,204.184z"/>
			<path style="opacity:0.44;fill:#DE6C6B;" d="M355.4,204.98c0,0.277-0.656,0.503-1.466,0.503s-1.466-0.225-1.466-0.503
				c0-0.278,0.656-0.503,1.466-0.503S355.4,204.702,355.4,204.98z"/>
			<path style="fill:#2B3448;" d="M353.206,195.952c0,0-0.34,0.694-0.135,0.915c0.205,0.222,2.525,0.609,4.156,1.347
				c1.632,0.738,1.182,0.457,1.182,0.457S356.376,196.027,353.206,195.952z"/>
			<path style="fill:#2B3448;" d="M346.485,195.62c0,0,0.206,0.744-0.037,0.925c-0.242,0.18-2.594,0.133-4.333,0.557
				c-1.74,0.424-1.246,0.231-1.246,0.231S343.356,195.109,346.485,195.62z"/>
			<path style="fill:#FFFFFF;" d="M370.143,212.142c0,0.671-0.544,1.215-1.215,1.215s-1.215-0.544-1.215-1.215
				c0-0.671,0.544-1.215,1.215-1.215S370.143,211.471,370.143,212.142z"/>
			<g>
				<path style="fill:#FFFFFF;" d="M342.86,397.216c0,0-2.81,3.623-7.33,3.778c-4.52,0.155-10.522-0.139-10.011,4.775
					c0.512,4.914,24.009,1.175,25.546,0.498l-0.703-8.683L342.86,397.216z"/>
				<path style="fill:#FFFFFF;" d="M368.995,406.806c0,0-2.597,3.778-7.101,4.192c-4.504,0.414-10.513,0.465-9.72,5.341
					c0.792,4.876,24.037-0.203,25.533-0.967l-1.2-8.629L368.995,406.806z"/>
				<g>
					<path style="fill:#2B3448;" d="M335.391,406.826l-1.018-0.128c0.452-3.612-1.01-4.966-1.072-5.022l0.671-0.775
						C334.053,400.968,335.917,402.621,335.391,406.826z"/>
				</g>
				<g>
					<path style="fill:#2B3448;" d="M326.178,407.275v-1.026c6.052,0,22.228-0.258,24.378-1.43l0.491,0.9
						C348.276,407.231,328.432,407.275,326.178,407.275z"/>
				</g>
				<g>
					<path style="fill:#2B3448;" d="M339.103,402.867c-0.213-1.277-0.852-1.961-0.857-1.966l0.735-0.715
						c0.035,0.036,0.866,0.901,1.134,2.513L339.103,402.867z"/>
				</g>
				<g>
					<path style="fill:#2B3448;" d="M341.341,401.374c-0.209-1.254-1.037-1.905-1.045-1.911l0.615-0.821
						c0.047,0.036,1.163,0.889,1.442,2.565L341.341,401.374z"/>
				</g>
				<g>
					<path style="fill:#2B3448;" d="M358.018,417.07l-1.002-0.222c0.451-2.031-0.939-4.855-0.953-4.883l0.918-0.459
						C357.045,411.635,358.548,414.682,358.018,417.07z"/>
				</g>
				<g>
					<path style="fill:#2B3448;" d="M360.45,417.123c-4.41,0-7.978-0.247-8.314-0.271l0.074-1.024
						c0.187,0.014,18.916,1.314,24.182-2.037l0.551,0.866C373.766,416.678,366.355,417.123,360.45,417.123z"/>
				</g>
				<g>
					<path style="fill:#2B3448;" d="M364.241,413.561l-1.012-0.168c0.206-1.239-0.634-2.322-0.642-2.333l0.802-0.639
						C363.435,410.479,364.523,411.863,364.241,413.561z"/>
				</g>
				<g>
					<path style="fill:#2B3448;" d="M367.228,412.297l-1.018-0.126c0.198-1.587-0.921-2.191-0.969-2.216l0.463-0.916
						C365.779,409.076,367.519,409.975,367.228,412.297z"/>
				</g>
			</g>
			<path style="opacity:0.49;fill:#DE6C6B;" d="M320.925,249.729c0.574,0.628,0.845,1.332,1.043,2.054
				c0.168,0.73,0.261,1.479,0.049,2.304c-0.576-0.628-0.847-1.332-1.043-2.055C320.809,251.302,320.715,250.553,320.925,249.729z"/>
			<path style="fill:#E7B68C;" d="M360.992,273.101l-6.97,0.617c-0.023-0.019-4.405,0.767-4.738,0.767
				c-0.405,0.001-0.571-0.409-0.571-0.409c-0.363-0.966,4.483-1.628,4.483-1.628c0.034-0.004,0.065-0.002,0.097-0.004
				c-0.028-0.078-0.055-0.159-0.081-0.241c-1.747,0.268-5.875,0.895-6.312,0.893c-0.556-0.003-0.719-0.481-0.719-0.481
				c-0.346-1.127,6.405-1.856,6.405-1.856c0.093-0.008,0.178-0.009,0.259-0.007c-0.026-0.128-0.051-0.256-0.075-0.384
				c-1.744,0.15-6.937,0.589-7.452,0.56c-0.62-0.035-0.746-0.524-0.746-0.524c-0.255-1.151,7.358-1.494,7.358-1.494
				c0.245-0.006,0.449,0.016,0.62,0.057c-0.031-0.232-0.059-0.456-0.083-0.666c-1.659-0.025-6.09-0.098-6.533-0.175
				c-0.547-0.096-0.625-0.594-0.625-0.594c-0.145-1.169,11.211-1.354,11.211-1.354c-0.076-0.288-0.678-1.095-1.342-1.391
				c-1.492-0.668-1.429-0.986-1.429-0.986c0.397-1.465,2.785-0.108,5.092,0.683c1.444,0.495,2.375,1.523,2.871,2.222
				c0.32,0.323,0.398,0.588,0.398,0.588l3.158-0.118l0.1,5.348L360.992,273.101z"/>
			<path style="fill:#E7B68C;" d="M309.952,233.606l-1.268-6.881c0.017-0.024-1.177-4.314-1.209-4.645
				c-0.039-0.403,0.354-0.607,0.354-0.607c0.928-0.452,2.042,4.311,2.042,4.311c0.007,0.034,0.008,0.064,0.013,0.096
				c0.075-0.035,0.153-0.069,0.232-0.103c-0.431-1.714-1.443-5.765-1.482-6.201c-0.049-0.554,0.411-0.761,0.411-0.761
				c1.09-0.451,2.449,6.202,2.449,6.202c0.016,0.092,0.026,0.176,0.031,0.257c0.125-0.038,0.25-0.075,0.375-0.111
				c-0.313-1.722-1.237-6.851-1.257-7.366c-0.023-0.62,0.451-0.792,0.451-0.792c1.122-0.362,2.178,7.186,2.178,7.186
				c0.029,0.243,0.026,0.448,0.001,0.622c0.228-0.053,0.448-0.101,0.655-0.145c-0.131-1.654-0.474-6.072-0.439-6.521
				c0.044-0.553,0.533-0.678,0.533-0.678c1.151-0.255,2.401,11.034,2.401,11.034c0.279-0.103,1.026-0.778,1.259-1.467
				c0.525-1.549,0.847-1.515,0.847-1.515c1.496,0.258,0.369,2.763-0.202,5.134c-0.358,1.484-1.293,2.508-1.943,3.066
				c-0.291,0.349-0.548,0.452-0.548,0.452l0.414,3.134l-5.315,0.602L309.952,233.606z"/>
			<path style="opacity:0.39;fill:#DE6C6B;" d="M316.425,228.503c-0.778,0.581-1.451,1.214-1.967,1.969
				c-0.265,0.37-0.487,0.769-0.674,1.191c-0.201,0.419-0.321,0.871-0.48,1.336c-0.053-0.484-0.027-0.986,0.108-1.466
				c0.111-0.488,0.345-0.943,0.627-1.356C314.616,229.361,315.467,228.724,316.425,228.503z"/>
			<path style="opacity:0.39;fill:#DE6C6B;" d="M310.816,228.967c0.804-0.367,1.638-0.584,2.48-0.766
				c0.845-0.163,1.698-0.289,2.582-0.264c-0.803,0.368-1.638,0.585-2.479,0.766C312.552,228.865,311.699,228.991,310.816,228.967z"
				/>
			<path style="opacity:0.39;fill:#DE6C6B;" d="M354.05,268.17c0.261,0.686,0.374,1.383,0.459,2.083
				c0.031,0.351,0.065,0.701,0.062,1.055c0.012,0.353-0.016,0.707-0.007,1.066c-0.218-0.311-0.291-0.673-0.385-1.016
				c-0.09-0.347-0.138-0.699-0.181-1.051C353.935,269.601,353.914,268.892,354.05,268.17z"/>
		</g>
	</g>
	<g>
		<g>
			<g>
				<path style="fill:#336149;" d="M89.767,448.323l-4.807-3.533c-0.272-0.2-27.341-20.611-35.23-70.316l2.026-0.323
					c5.694,35.872,21.424,56.14,29.499,64.465c-11.604-22.905-11.75-57.944-11.75-59.555h2.052c0,0.424,0.175,42.683,14.861,64.326
					L89.767,448.323z"/>
			</g>
			<g>
				<path style="fill:#336149;" d="M75.649,448.854c-10.275-4.639-18.976-15.023-25.161-30.026
					c-4.642-11.259-6.281-21.301-6.297-21.402l2.026-0.325c0.063,0.391,6.534,39.161,30.276,49.883L75.649,448.854z"/>
			</g>
		</g>
		<g>
			<g>
				<path style="fill:#336149;" d="M409.857,447.531l4.807-3.533c0.272-0.2,27.341-20.611,35.23-70.316l-2.026-0.323
					c-5.694,35.872-21.424,56.14-29.499,64.465c11.604-22.905,11.75-57.944,11.75-59.555h-2.052c0,0.424-0.175,42.683-14.861,64.326
					L409.857,447.531z"/>
			</g>
			<g>
				<path style="fill:#336149;" d="M423.976,448.063c10.275-4.639,18.976-15.023,25.161-30.026
					c4.642-11.259,6.281-21.301,6.297-21.402l-2.026-0.325c-0.063,0.391-6.534,39.161-30.276,49.883L423.976,448.063z"/>
			</g>
		</g>
		<path style="fill:#DE6C6B;" d="M49.16,400.827c0,2.404-1.949,4.353-4.353,4.353c-2.404,0-4.353-1.949-4.353-4.353
			s1.949-4.353,4.353-4.353C47.211,396.474,49.16,398.422,49.16,400.827z"/>
		<path style="fill:#DE6C6B;" d="M54.7,377.478c0,2.404-1.949,4.353-4.353,4.353s-4.353-1.949-4.353-4.353
			c0-2.404,1.949-4.353,4.353-4.353S54.7,375.074,54.7,377.478z"/>
		<circle style="fill:#DE6C6B;" cx="70.926" cy="381.435" r="4.353"/>
		<path style="fill:#DE6C6B;" d="M434.473,378.269c0,2.404-1.949,4.353-4.353,4.353s-4.353-1.949-4.353-4.353
			c0-2.404,1.949-4.353,4.353-4.353S434.473,375.865,434.473,378.269z"/>
		<path style="fill:#DE6C6B;" d="M452.819,375.103c0,2.404-1.949,4.353-4.353,4.353c-2.404,0-4.353-1.949-4.353-4.353
			s1.949-4.353,4.353-4.353C450.87,370.75,452.819,372.699,452.819,375.103z"/>
		<circle style="fill:#DE6C6B;" cx="455.193" cy="398.848" r="4.353"/>
		<path style="fill:#336149;" d="M429.129,427.287c-1.217,0-2.393,0.163-3.525,0.439c-0.924-4.905-5.224-8.618-10.397-8.618
			c-3.578,0-6.736,1.78-8.652,4.498c-2.964-2.106-6.578-3.357-10.491-3.357c-2.272,0-4.438,0.436-6.443,1.199
			c-2.401-10.662-11.91-18.633-23.298-18.633c-11.694,0-21.409,8.404-23.477,19.498c-2.51-1.312-5.36-2.064-8.388-2.064
			c-9.335,0-17.015,7.05-18.027,16.115c-1.275-0.544-2.678-0.847-4.151-0.847c-5.847,0-10.587,4.74-10.587,10.587
			c0,5.847,4.74,10.587,10.587,10.587c0.386,0,0.766-0.023,1.141-0.064h112.579c1.01,0.217,2.056,0.337,3.13,0.337
			c8.195,0,14.839-6.644,14.839-14.839S437.325,427.287,429.129,427.287z"/>
		<path style="fill:#336149;" d="M189.797,430.464c-1.217,0-2.393,0.163-3.525,0.439c-0.924-4.905-5.224-8.618-10.397-8.618
			c-3.578,0-6.736,1.78-8.652,4.498c-2.964-2.106-6.578-3.357-10.491-3.357c-2.272,0-4.438,0.436-6.443,1.199
			c-2.401-10.662-11.91-18.633-23.298-18.633c-11.694,0-21.409,8.404-23.477,19.498c-2.51-1.312-5.36-2.064-8.388-2.064
			c-9.335,0-17.015,7.05-18.027,16.115c-1.275-0.544-2.678-0.847-4.151-0.847c-5.847,0-10.587,4.74-10.587,10.587
			c0,5.847,4.74,10.587,10.587,10.587c0.386,0,0.766-0.023,1.141-0.064h112.579c1.01,0.217,2.056,0.337,3.13,0.337
			c8.195,0,14.839-6.644,14.839-14.839C204.636,437.108,197.992,430.464,189.797,430.464z"/>
	</g>
</g>
</svg>
